<?xml version="1.0" encoding="utf-8"?>
<!-- Generator: Adobe Illustrator 27.5.0, SVG Export Plug-In . SVG Version: 6.00 Build 0)  -->
<svg version="1.1" id="Слой_2" xmlns="http://www.w3.org/2000/svg" xmlns:xlink="http://www.w3.org/1999/xlink" x="0px" y="0px"
	 viewBox="0 0 3200 2000" style="enable-background:new 0 0 3200 2000;" xml:space="preserve">
<rect style="fill:#FFFFFF;" width="3200" height="2000"/>
<g>
	<path style="fill:#EDF4FF;" d="M3019.881,1278.752c-0.111,5.645-0.332,11.176-0.555,16.707c-0.331,5.532-0.663,10.95-0.994,16.373
		c-0.886,11.614-2.103,23.12-3.651,34.293c-1.881,14.383-4.204,28.543-6.858,42.15c-0.775,3.871-1.55,7.633-2.324,11.396
		c-0.331,1.548-0.664,2.987-0.995,4.424l-0.222,0.775c-0.442,1.99-0.885,3.983-1.327,5.975c-0.332,1.88-0.774,3.76-1.217,5.531
		c-1.659,6.857-3.43,13.606-5.2,20.135c-0.11,0.551-0.331,1.104-0.441,1.658c-0.223,0.665-0.333,1.326-0.554,1.991
		c-1.991,7.414-4.093,14.492-6.195,21.461c-2.876,9.404-5.863,18.366-8.85,27.104c-0.886,2.544-1.771,5.091-2.656,7.524
		c-1.327,3.652-2.655,7.301-3.872,10.842c0,0,0,0,0,0.11c-1.217,2.877-2.212,5.531-3.318,8.298
		c-1.659,4.424-3.43,8.629-5.089,12.831c-2.544,6.196-5.089,12.171-7.522,17.702c-0.553,1.326-1.106,2.544-1.66,3.76
		c-1.105,2.544-2.212,4.98-3.208,7.303c-2.213,4.867-4.425,9.513-6.527,13.829c-2.102,4.313-4.093,8.408-5.974,12.17
		c-7.08,13.937-13.054,25.442-15.709,30.423c-0.886,1.77-1.438,2.766-1.438,2.766s-2725.67,0.33-2725.781,0.219
		c-72.02-160.965,9.624-283.982,180.435-423.044c127.887-104.322,365.407-140.387,303.455-360.648
		c-73.125-259.645,272.368-344.61,617.198-263.518c269.713,63.39,517.963,288.41,704.926,212.96
		c362.309-146.25,535.996-81.091,636.336-38.941c3.208,1.329,6.417,2.655,9.514,4.095c14.714,6.414,29.538,13.715,44.473,21.794
		c3.098,1.658,6.195,3.427,9.404,5.199c10.398,5.864,20.908,12.17,31.418,18.917c4.868,3.209,9.736,6.417,14.714,9.734
		c0.332,0.222,0.774,0.443,1.106,0.775c6.748,4.535,13.496,9.183,20.245,14.161c7.854,5.753,15.709,11.728,23.674,18.031
		c14.05,11.063,28.101,23.012,42.261,35.733c5.421,4.87,10.731,9.848,16.152,14.936c6.306,5.864,12.39,11.838,18.253,17.923
		c5.421,5.642,10.731,11.284,15.82,16.924c1.771,1.882,3.54,3.873,5.31,5.866c4.315,4.867,8.408,9.845,12.502,14.712
		c3.761,4.535,7.301,9.183,10.841,13.718c1.327,1.771,2.655,3.541,3.983,5.199c2.102,2.876,4.203,5.642,6.194,8.518
		c4.314,6.085,8.519,12.06,12.391,18.145c5.311,8.076,10.289,16.151,14.936,24.227c0.663,1.105,1.327,2.213,1.991,3.431
		c0.553,0.994,1.105,1.99,1.659,2.984c1.549,2.766,3.098,5.646,4.646,8.411c10.399,19.581,19.249,39.271,26.661,58.963
		c0.443,1.218,0.885,2.434,1.327,3.651c0.774,1.991,1.438,3.984,2.103,5.975c1.327,3.648,2.545,7.301,3.762,10.952
		c1.105,3.538,2.213,7.189,3.318,10.73c0.111,0.443,0.332,0.997,0.442,1.439c0.886,2.984,1.659,5.861,2.545,8.849
		c1.438,5.31,2.876,10.62,4.093,15.93c1.992,8.411,3.762,16.708,5.311,25.113c0.11,0.774,0.332,1.661,0.442,2.436
		c1.438,8.076,2.655,16.041,3.761,24.006C3019.105,1223.329,3020.434,1251.427,3019.881,1278.752z"/>
	<path style="fill:#B8E0AF;" d="M446.454,1615.228c0,0,23.039-65.951,98.364-70.306c75.326-4.354,117.182-62.867,195.018-49.182
		c77.836,13.686,83.682,71.146,116.455,87c32.773,15.854,197.715-20.57,260.283-3.297c62.568,17.274,91.885-25.722,150.081-44.315
		c58.195-18.594,96.366,6.897,138.236,35.906s100.473-3.265,97.907,42.833L446.454,1615.228z"/>
	<rect x="728.622" y="1010.695" style="opacity:0.4;fill:#CBD9EF;" width="720.622" height="544.457"/>
	<g>
		<path style="fill:#E58638;" d="M866.883,963.583l-0.128,18.318l-3.805,550.836c-0.009,1.327-0.481,2.392-1.059,2.392h-0.283
			c-1.141,0-2.072-2.09-2.098-4.706l-5.271-531.707l-0.348-35.133H866.883z"/>
		<path style="fill:#CC621B;" d="M866.883,963.583l-0.128,18.318c-3.475,2.496-8.451,7.427-12.516,16.815l-0.348-35.133H866.883z"/>
	</g>
	<path style="opacity:0.4;fill:#C4D2E8;" d="M1449.244,1282.744v272.408H728.622v-544.457h211.756
		C1005.332,1073.074,1233.203,1276.475,1449.244,1282.744z"/>
	<path style="fill:#B8E0AF;" d="M1642.619,1611.892h-71.058c-3.808-3.229,2.635-10.565,9.367-11.059
		c2.924-0.221,6.621,0.392,10.846,1.284c0.977-12.988,6.562-71.373,27.606-69.027c23.664,2.627,0,25.712-6.688,39.38
		c-4.956,10.123-10.183,24.641-12.571,31.491c1.921,0.417,3.91,0.825,5.941,1.199c3.136-9.631,14.807-42.023,29.646-40.137
		c17.425,2.21,10.421,15.198-1.929,22.907c-9.062,5.669-20.188,13.728-25.474,17.62c4.479,0.73,9.154,1.224,13.896,1.113
		C1634.375,1606.375,1640.316,1609.962,1642.619,1611.892z"/>
	<path style="fill:#B8E0AF;" d="M248.073,1607.763c-3.858-6.06-15.467-21.788-30.931-19.706
		c-16.848,2.268,18.607,13.376,29.462,19.752c-2.41,0.033-4.483-0.159-6.005-0.701c-7.257-2.587-19.685,2.373-23.659,4.114h69.086
		c-0.477-1.653-1.722-4.352-4.94-6.318c-1.134-0.693-3.415-0.79-6.358-0.565c4.108-4.843,6.96-20.313-4.475-16.332
		c-8.354,2.908-8.332,12.36-7.512,17.952c-1.777,0.279-3.58,0.561-5.36,0.816c-3.439-17.53-15.605-68.907-40.264-70.277
		c-24.998-1.389,21.199,53.282,36.58,70.768C251.727,1607.502,249.83,1607.681,248.073,1607.763z"/>
	<g>
		<g>
			<g>
				<path style="fill:#CC621B;" d="M1384.344,1467.831l-0.411,18.158l-2.868,126.558c-0.018,0.789-0.662,1.418-1.45,1.418l0,0
					c-1.357,0-2.473-1.072-2.525-2.428l-4.653-119.825l-0.924-23.881H1384.344z"/>
				<path style="fill:#B25414;" d="M1384.344,1467.831l-0.411,18.158c-3.618,1.206-7.895,3.036-11.496,5.723l-0.924-23.881H1384.344
					z"/>
			</g>
			<g>
				<path style="fill:#CC621B;" d="M807.356,1467.831l-0.411,18.158l-2.867,126.558c-0.018,0.789-0.662,1.418-1.451,1.418l0,0
					c-1.357,0-2.472-1.072-2.525-2.428l-4.653-119.825l-0.924-23.881H807.356z"/>
				<path style="fill:#B25414;" d="M807.356,1467.831l-0.411,18.158c-3.618,1.206-7.895,3.036-11.496,5.723l-0.924-23.881H807.356z"
					/>
			</g>
		</g>
		<path style="fill:#E58638;" d="M1414.816,1473.922H764.054c-4.108,0-7.469-3.361-7.469-7.469v-37.555
			c0-4.108,3.361-7.47,7.469-7.47h650.762c4.108,0,7.469,3.361,7.469,7.47v37.555
			C1422.285,1470.561,1418.924,1473.922,1414.816,1473.922z"/>
	</g>
	<g>
		<path style="fill:#8E3900;" d="M3002.954,1410.845c-0.332,1.88-0.774,3.76-1.217,5.531c-1.659,6.857-3.43,13.606-5.2,20.135
			c-0.11,0.551-0.331,1.104-0.441,1.658c-0.223,0.665-0.333,1.326-0.554,1.991c-1.991,7.414-4.093,14.492-6.195,21.461
			c-2.876,9.404-5.863,18.366-8.85,27.104c-0.886,2.544-1.771,5.091-2.656,7.524c-1.327,3.652-2.655,7.301-3.872,10.842
			c0,0,0,0,0,0.11c-1.217,2.877-2.212,5.531-3.318,8.298c-1.659,4.424-3.43,8.629-5.089,12.831
			c-2.544,6.196-5.089,12.171-7.522,17.702c-0.553,1.326-1.106,2.544-1.66,3.76c-1.105,2.544-2.212,4.98-3.208,7.303h-157.093
			v-146.25H3002.954z"/>
		<rect x="1978.841" y="1410.821" style="fill:#8E3900;" width="291.253" height="146.222"/>
		<circle style="fill:#233862;" cx="2116.476" cy="1527.648" r="86.316"/>
		<path style="fill:#466AA5;" d="M2161.759,1527.653c0,10.084-3.302,19.399-8.878,26.917c-8.237,11.146-21.479,18.364-36.403,18.364
			c-25.011,0-45.29-20.271-45.29-45.281c0-19.416,12.214-35.976,29.372-42.416c4.952-1.856,10.315-2.874,15.918-2.874
			C2141.487,1482.363,2161.759,1502.635,2161.759,1527.653z"/>
		<path style="fill:#ED7D2B;" d="M3015.344,1194.786c-1.105-7.965-2.322-15.93-3.76-24.006c-0.111-0.774-0.333-1.661-0.443-2.437
			c-1.549-8.404-3.318-16.701-5.311-25.112l-1195.343-221.7c-1.771,0-3.651,0-5.421,0.113c-0.332,0-0.774,0.108-1.106,0.108
			c-0.774,0-1.438,0.114-2.102,0.114h-0.111c-0.331,0.108-0.663,0.108-0.995,0.108c-0.442,0.113-0.885,0.113-1.217,0.221
			c-3.319,0.332-6.638,0.997-9.957,1.772c-0.442,0.111-0.885,0.221-1.327,0.33c-0.111,0.113-0.222,0.113-0.332,0.113
			c-0.664,0.222-1.328,0.329-1.881,0.551c-0.442,0.111-0.885,0.222-1.327,0.333c-0.664,0.221-1.328,0.443-1.991,0.664
			c-0.664,0.221-1.328,0.443-1.991,0.664c-0.332,0.111-0.664,0.333-1.107,0.44c-0.663,0.221-1.438,0.556-2.212,0.886
			c-0.553,0.222-1.217,0.443-1.771,0.775c-0.995,0.332-1.88,0.775-2.876,1.218c-0.553,0.33-1.106,0.551-1.77,0.883
			c-0.333,0.222-0.774,0.333-1.107,0.554c-0.773,0.443-1.438,0.775-2.102,1.107c-0.664,0.443-1.327,0.773-1.991,1.215
			c-0.664,0.332-1.217,0.665-1.881,1.107c-0.11,0.111-0.221,0.111-0.331,0.222c-0.665,0.329-1.218,0.772-1.771,1.105
			c-0.553,0.443-1.105,0.775-1.66,1.218c-0.553,0.332-1.105,0.664-1.658,1.107c-0.332,0.221-0.664,0.551-1.107,0.772
			c-1.438,1.107-2.875,2.323-4.203,3.541c-0.332,0.222-0.664,0.443-0.885,0.665c-0.443,0.44-0.886,0.775-1.217,1.104
			c-0.443,0.443-0.886,0.775-1.328,1.218l-2.434,2.434c-0.442,0.443-0.885,0.886-1.217,1.329c-0.553,0.44-0.996,0.994-1.438,1.437
			c-0.222,0.332-0.553,0.664-0.885,0.994c-0.554,0.775-1.106,1.44-1.659,2.104c-0.332,0.332-0.554,0.662-0.886,0.997
			c-0.222,0.44-0.553,0.772-0.774,1.104c-0.553,0.775-1.105,1.439-1.659,2.212c-0.221,0.333-0.442,0.664-0.664,1.107
			c-0.331,0.332-0.553,0.665-0.774,1.107c-0.442,0.551-0.885,1.215-1.327,1.88c0,0.111,0,0.111-0.11,0.111
			c-0.11,0.332-0.332,0.554-0.443,0.883c-0.331,0.443-0.553,0.886-0.885,1.329c-0.221,0.443-0.442,0.665-0.553,1.107
			c-0.111,0-0.111,0.108-0.111,0.108c-0.109,0.335-0.331,0.665-0.553,0.997c-0.332,0.554-0.664,1.218-0.995,1.769
			c-0.332,0.775-0.774,1.55-1.106,2.326c-0.332,0.662-0.664,1.326-0.885,1.991c-0.222,0.332-0.332,0.664-0.554,0.994
			c-0.11,0.443-0.221,0.775-0.442,1.107c-0.332,0.775-0.553,1.44-0.886,2.215c-0.221,0.662-0.553,1.326-0.774,2.101
			c-0.109,0.33-0.331,0.772-0.442,1.215c-0.11,0.332-0.221,0.664-0.332,0.996c-0.109,0.222-0.109,0.443-0.221,0.662
			c-0.11,0.335-0.222,0.775-0.332,1.107c-0.221,0.553-0.332,1.107-0.553,1.658c-0.111,0.443-0.222,0.886-0.332,1.329
			c-0.11,0.443-0.222,0.775-0.332,1.218c-1.217,4.313-2.323,8.737-3.54,13.386c-0.222,0.775-0.442,1.548-0.664,2.322
			c-1.327,4.867-2.654,9.845-3.982,14.934c-0.332,0.997-0.553,2.104-0.885,3.209c-0.111,0.554-0.222,0.996-0.332,1.44
			c-0.442,1.548-0.885,3.098-1.217,4.646c-0.442,1.551-0.885,3.209-1.328,4.756c0,0.222-0.11,0.443-0.221,0.775
			c-0.11,0.775-0.332,1.551-0.554,2.325c-0.221,0.662-0.331,1.216-0.442,1.77c-0.442,1.437-0.774,2.766-1.105,4.202
			c-0.554,1.883-0.996,3.763-1.549,5.643c-0.333,1.439-0.775,2.987-1.106,4.537c-1.218,4.535-2.435,9.181-3.651,13.829
			c-0.553,2.322-1.106,4.534-1.77,6.857c-0.554,2.323-1.217,4.648-1.771,6.971c-0.553,2.323-1.217,4.646-1.771,6.969
			c-0.553,2.102-0.995,4.202-1.548,6.307c-1.549,6.085-3.098,12.167-4.536,18.142c-0.553,2.323-1.106,4.537-1.659,6.75
			c-0.222,0.775-0.332,1.547-0.554,2.212c-0.553,2.322-1.105,4.534-1.659,6.747c-0.11,0.442-0.11,0.774-0.222,1.218
			c-0.441,1.769-0.885,3.541-1.327,5.31c-0.222,0.775-0.331,1.548-0.553,2.213c-0.442,1.992-0.886,3.873-1.328,5.752
			c-0.221,1.219-0.553,2.323-0.774,3.431c-0.553,1.99-0.996,3.873-1.438,5.863c0,0.111,0,0.333-0.111,0.443
			c-0.221,1.104-0.442,2.212-0.664,3.206c-0.11,0.221-0.11,0.335-0.11,0.557c-0.221,0.883-0.442,1.769-0.663,2.652
			c-0.221,0.996-0.442,2.104-0.664,3.098c-0.553,2.104-0.995,4.094-1.438,6.195c-0.11,0.443-0.221,0.997-0.331,1.548
			c-0.554,2.437-1.107,4.98-1.66,7.414c-0.11,0.883-0.332,1.769-0.553,2.655c0,0.221-0.111,0.442-0.111,0.664
			c-0.221,0.772-0.331,1.658-0.553,2.434c-0.11,0.332-0.11,0.662-0.222,0.996c-0.221,1.216-0.442,2.432-0.774,3.649v0.11
			c-0.109,0.775-0.331,1.438-0.442,2.213c-0.442,2.325-0.885,4.534-1.327,6.749c-2.323,11.506-4.094,21.572-5.089,29.647
			c-5.421,40.711-7.522,85.959-8.076,129.768c-0.11,18.807,0,37.283,0.332,54.871c0.11,7.965,0.332,15.711,0.554,23.233
			c0.663,21.462,1.548,41.265,2.433,58.522c0.554,10.066,1.217,19.139,1.66,27.215c1.549,22.015,19.691,39.053,41.707,39.053
			h305.335c-0.11-0.333-0.11-0.665-0.221-0.997c-2.545-9.072-3.762-18.585-3.762-28.433c0-41.372,23.343-77.326,57.638-95.36
			c14.492-7.633,30.865-11.948,48.234-12.281c18.475-0.222,35.954,4.206,51.221,12.281c33.963,17.813,57.416,53.103,57.97,93.813
			c0.109,10.399-1.217,20.465-3.762,29.98c-0.11,0.332-0.222,0.664-0.222,0.997h167.492h419.062h22.236
			c-2.654-9.405-4.203-19.25-4.203-29.43c0-60.292,48.897-109.078,109.079-109.078c23.232,0,44.805,7.189,62.396,19.581
			c0.11-0.554,0.331-1.107,0.441-1.658c1.771-6.528,3.541-13.277,5.2-20.135c0.442-1.771,0.886-3.651,1.217-5.532
			c0.442-1.99,0.886-3.983,1.327-5.974l0.222-0.775c0.331-1.437,0.664-2.876,0.995-4.424c0.774-3.763,1.549-7.524,2.324-11.396
			c2.654-13.607,4.979-27.768,6.858-42.15c1.549-11.173,2.766-22.679,3.651-34.293c0.331-5.424,0.663-10.842,0.994-16.373
			c0.223-5.531,0.443-11.063,0.555-16.707C3020.434,1251.427,3019.106,1223.329,3015.344,1194.786z"/>
		<path style="fill:#FFB93E;" d="M1857.472,1451.776h-53.341c-5.352,0-9.73-4.379-9.73-9.73l0,0c0-5.352,4.379-9.729,9.73-9.729
			h53.341c5.352,0,9.73,4.378,9.73,9.729l0,0C1867.202,1447.397,1862.823,1451.776,1857.472,1451.776z"/>
		<path style="fill:#F99746;" d="M3015.344,1194.786c0,0-1340.727-4.017-1341.299-1.656c-2.293,9.485-4.046,17.774-5.106,24.411
			c-6.817,42.818-8.511,91.992-7.972,136.701c0.145,11.7,0.436,23.094,0.838,33.982h875.07v0.051h470.947
			c2.654-13.607,4.979-27.768,6.858-42.15c1.549-11.173,2.766-22.679,3.651-34.293c0.331-5.424,0.663-10.842,0.994-16.373
			c0.223-5.531,0.443-11.063,0.555-16.707C3020.434,1251.427,3019.106,1223.329,3015.344,1194.786z"/>
		<path style="fill:#FFB93E;" d="M1683.039,1490.857h-22.864c-4.946,0-8.993-4.047-8.993-8.994v-63.756
			c0-4.946,4.047-8.993,8.993-8.993h22.864c4.946,0,8.993,4.047,8.993,8.993v63.756
			C1692.032,1486.811,1687.985,1490.857,1683.039,1490.857z"/>
		<path style="fill:#233862;" d="M3015.344,1194.786c-1.105-7.965-2.322-15.93-3.76-24.006c-0.111-0.774-0.333-1.661-0.443-2.437
			c-1.549-8.404-3.318-16.701-5.311-25.112c-1.217-5.31-2.654-10.62-4.093-15.93c-0.886-2.987-1.659-5.864-2.545-8.849
			c-0.11-0.442-0.331-0.996-0.442-1.439c-1.105-3.541-2.213-7.192-3.318-10.73c-1.217-3.651-2.435-7.303-3.762-10.952
			c-0.664-1.99-1.328-3.983-2.102-5.975c-0.443-1.218-0.885-2.434-1.328-3.651c-7.412-19.692-16.262-39.382-26.661-58.963
			c-1.549-2.766-3.098-5.646-4.646-8.411c-0.554-0.994-1.106-1.99-1.659-2.984c-0.664-1.218-1.328-2.325-1.992-3.431
			c-4.646-8.075-9.624-16.151-14.935-24.227c-3.872-6.085-8.075-12.06-12.391-18.145c-1.991-2.876-4.093-5.642-6.194-8.518
			c-1.328-1.659-2.655-3.428-3.983-5.199c-3.54-4.535-7.08-9.183-10.841-13.718c-4.094-4.867-8.187-9.844-12.502-14.711
			c-1.77-1.993-3.539-3.984-5.31-5.866H2165.83c-0.022-0.016-0.045-0.033-0.068-0.048h-355.299c-1.797,0-3.593,0.051-5.372,0.163
			c-0.394,0.025-0.786,0.06-1.181,0.086c-0.675,0.051-1.351,0.102-2.026,0.171c-0.061,0-0.12,0.008-0.18,0.017
			c-0.325,0.034-0.642,0.06-0.967,0.103h-0.034c-0.394,0.043-0.796,0.094-1.188,0.145c-3.354,0.411-6.655,1.027-9.896,1.814
			c-0.462,0.111-0.924,0.231-1.386,0.351c-0.12,0.026-0.231,0.06-0.351,0.094c-0.625,0.163-1.249,0.342-1.874,0.522
			c-0.427,0.12-0.854,0.248-1.273,0.376c-0.668,0.206-1.344,0.419-2.011,0.642c-0.667,0.223-1.334,0.454-1.992,0.693
			c-0.359,0.12-0.719,0.248-1.069,0.394c-0.735,0.274-1.472,0.556-2.198,0.855c-0.625,0.248-1.24,0.504-1.856,0.77
			c-0.949,0.411-1.891,0.838-2.822,1.283c-0.591,0.273-1.181,0.564-1.763,0.855c-0.394,0.197-0.778,0.393-1.171,0.599
			c-0.693,0.359-1.377,0.727-2.062,1.112c-0.685,0.377-1.36,0.761-2.027,1.155l-0.009,0.008c-0.607,0.359-1.215,0.727-1.822,1.104
			c-0.137,0.085-0.273,0.171-0.401,0.257c-0.582,0.359-1.163,0.735-1.736,1.12c-0.556,0.368-1.112,0.744-1.659,1.129
			c-0.548,0.385-1.087,0.77-1.625,1.163c-0.359,0.265-0.711,0.53-1.069,0.795c-1.472,1.112-2.908,2.267-4.312,3.473
			c-0.282,0.24-0.564,0.488-0.847,0.744c-0.419,0.368-0.838,0.744-1.249,1.121c-0.419,0.377-0.829,0.753-1.231,1.146
			c-0.847,0.804-1.685,1.625-2.497,2.463c-0.42,0.436-0.839,0.881-1.258,1.326c-0.453,0.488-0.898,0.975-1.334,1.471
			c-0.3,0.334-0.59,0.668-0.881,1.009c-0.6,0.676-1.172,1.36-1.72,2.053c-0.282,0.342-0.564,0.692-0.838,1.043
			c-0.282,0.351-0.556,0.71-0.821,1.061c-0.547,0.718-1.086,1.445-1.608,2.181c-0.257,0.359-0.513,0.718-0.761,1.086
			c-0.255,0.364-0.509,0.729-0.755,1.102c-7.981,0.28-17.146,1.138-26.581,3.104c-35.162,7.325-57.374,26.728-64.483,56.209
			l-4.28-0.409c-5.706-0.544-10.892,3.334-11.981,8.962l-18.814,97.161c-1.249,6.447,3.329,12.567,9.866,13.191l27.113,2.589
			c6.117,0.584,11.55-3.902,12.134-10.02l9.361-98.063c0.562-5.884-3.571-11.121-9.331-12.033
			c6.132-26.568,21.479-46.505,53.52-53.232c7.072-1.484,13.918-2.035,20.137-2.058c-0.007,0.01-0.013,0.021-0.019,0.031
			c-0.197,0.333-0.385,0.675-0.564,1.018c-0.334,0.599-0.659,1.206-0.976,1.813c-0.394,0.753-0.778,1.505-1.146,2.267
			c-0.316,0.65-0.625,1.309-0.924,1.967c-0.163,0.359-0.325,0.719-0.479,1.078c-0.162,0.368-0.316,0.727-0.471,1.095
			c-0.308,0.727-0.607,1.462-0.897,2.198c-0.266,0.684-0.522,1.368-0.778,2.061c-0.146,0.419-0.3,0.838-0.437,1.257
			c-0.12,0.334-0.23,0.667-0.342,1.009c-0.068,0.206-0.137,0.402-0.206,0.607c-0.119,0.377-0.239,0.761-0.358,1.138
			c-0.171,0.547-0.334,1.086-0.487,1.642c-0.138,0.462-0.266,0.933-0.395,1.403c-0.094,0.385-0.205,0.77-0.308,1.163
			c-1.172,4.328-2.369,8.793-3.601,13.386c-0.205,0.762-0.41,1.531-0.616,2.301c-1.309,4.85-2.634,9.828-3.985,14.908
			c-0.291,1.096-0.582,2.198-0.881,3.31c-0.077,0.291-0.163,0.582-0.24,0.881c-0.214,0.813-0.428,1.634-0.65,2.455
			c-0.239,0.906-0.479,1.813-0.709,2.72c-0.411,1.565-0.83,3.14-1.249,4.722c-0.061,0.239-0.128,0.487-0.197,0.735
			c-0.247,0.933-0.496,1.865-0.735,2.797c-0.119,0.454-0.239,0.898-0.351,1.352c-0.368,1.386-0.728,2.771-1.095,4.166
			c0,0.025-0.009,0.042-0.018,0.06c-0.487,1.864-0.983,3.738-1.471,5.619h390.93v147.688H3015.344z"/>
		<path style="fill:#38568A;" d="M3015.344,1194.786c-1.105-7.965-2.322-15.93-3.76-24.006c-0.111-0.774-0.333-1.661-0.443-2.437
			c-1.549-8.404-3.318-16.701-5.311-25.112c-1.217-5.31-2.654-10.62-4.093-15.93c-0.886-2.987-1.659-5.864-2.545-8.849
			c-0.11-0.442-0.331-0.996-0.442-1.439c-1.105-3.541-2.213-7.192-3.318-10.73c-1.217-3.651-2.435-7.303-3.762-10.952
			c-0.664-1.99-1.328-3.983-2.102-5.975c-0.443-1.218-0.885-2.434-1.328-3.651c-7.412-19.692-16.262-39.382-26.661-58.963
			c-1.549-2.766-3.098-5.646-4.646-8.411c-0.554-0.994-1.106-1.99-1.659-2.984c-0.664-1.218-1.328-2.325-1.992-3.431
			c-4.646-8.075-9.624-16.151-14.935-24.227h-693.199h-519.955c-1.217,4.313-2.323,8.737-3.54,13.386
			c-0.222,0.775-0.442,1.548-0.664,2.322c-1.327,4.867-2.654,9.845-3.982,14.934c-0.332,0.997-0.553,2.104-0.885,3.209
			c-0.111,0.554-0.222,0.996-0.332,1.44c-0.442,1.548-0.885,3.098-1.217,4.646c-0.442,1.551-0.885,3.209-1.328,4.756
			c0,0.222-0.11,0.443-0.221,0.775c-0.11,0.775-0.332,1.551-0.554,2.325c-0.221,0.662-0.331,1.216-0.442,1.77
			c-0.442,1.437-0.774,2.766-1.105,4.202c-0.554,1.883-0.996,3.763-1.549,5.643c-0.333,1.439-0.775,2.987-1.106,4.537
			c-1.218,4.535-2.435,9.181-3.651,13.829c-0.553,2.322-1.106,4.534-1.77,6.857c-0.554,2.323-1.217,4.648-1.771,6.971
			c-0.553,2.323-1.217,4.646-1.771,6.969c-0.553,2.102-0.995,4.202-1.548,6.307c-1.549,6.085-3.098,12.167-4.536,18.142
			c-0.553,2.323-1.106,4.537-1.659,6.75c-0.222,0.775-0.332,1.547-0.554,2.212c-0.553,2.322-1.105,4.534-1.659,6.747
			c-0.11,0.442-0.11,0.774-0.222,1.218c-0.441,1.769-0.885,3.541-1.327,5.31c-0.222,0.775-0.331,1.548-0.553,2.213
			c-0.442,1.992-0.886,3.873-1.328,5.752c-0.221,1.219-0.553,2.323-0.774,3.431c-0.553,1.99-0.996,3.873-1.438,5.863
			c0,0.111,0,0.333-0.111,0.443c-0.221,1.104-0.442,2.212-0.664,3.206c-0.11,0.221-0.11,0.335-0.11,0.557
			c-0.221,0.883-0.442,1.769-0.663,2.652c-0.221,0.996-0.442,2.104-0.664,3.098c-0.553,2.104-0.995,4.094-1.438,6.195
			c-0.11,0.443-0.221,0.997-0.331,1.548c-0.554,2.437-1.107,4.98-1.66,7.414c-0.11,0.883-0.332,1.769-0.553,2.655
			c0,0.221-0.111,0.442-0.111,0.664c-0.221,0.772-0.331,1.658-0.553,2.434c-0.11,0.332-0.11,0.662-0.222,0.996
			c-0.221,1.216-0.442,2.432-0.774,3.649v0.11c-0.109,0.775-0.331,1.438-0.442,2.213c-0.442,2.325-0.885,4.534-1.327,6.749
			l32.524,0.11h12.28l67.041,0.111l82.86,0.11h14.825l487.761,0.884c-0.109-0.443-0.22-0.884-0.442-1.216H3015.344z"/>
		<path style="fill:#38568A;" d="M1893.457,1036.901c0.588-9.49-6.95-17.511-16.459-17.511h-75.339
			c-48.494,0-81.892,38.416-87.808,87.808l-17.491,214.546c-0.599,7.346,5.201,13.639,12.572,13.639h154.432
			c6.511,0,11.898-5.064,12.302-11.563L1893.457,1036.901z"/>
		<path style="fill:#466AA5;" d="M1878.719,1050.536l-12.882,188.723l-4.507,66.032c0,8.502-6.886,15.387-15.38,15.387h-120.337
			c-21.136,0-14.849-31.348-13.146-51.132l13.3-155.107c0-2.993,0.154-5.953,0.462-8.869c4.098-39.653,35.411-70.489,73.431-70.489
			h45.111C1853.922,1035.08,1878.719,1035.08,1878.719,1050.536z"/>
		<path style="fill:#5F87C1;" d="M2161.759,1527.653c0,10.084-3.302,19.399-8.878,26.917
			c-50.277-13.865-53.604-51.936-52.321-69.333c4.952-1.856,10.315-2.874,15.918-2.874
			C2141.487,1482.363,2161.759,1502.635,2161.759,1527.653z"/>
		<path style="fill:#233862;" d="M2989.347,1461.621c-2.876,9.404-5.863,18.366-8.85,27.104c-0.886,2.544-1.771,5.091-2.656,7.524
			c-1.327,3.652-2.655,7.301-3.872,10.842c0,0,0,0,0,0.11c-1.217,2.877-2.212,5.531-3.318,8.298
			c-1.659,4.424-3.43,8.629-5.089,12.831c-2.544,6.196-5.089,12.171-7.522,17.702c-0.553,1.326-1.106,2.544-1.66,3.76
			c-1.105,2.544-2.212,4.98-3.208,7.303c-2.213,4.867-4.425,9.513-6.527,13.829c-2.102,4.313-4.093,8.408-5.974,12.17
			c-7.08,13.937-13.054,25.442-15.709,30.423c-33.521-3.321-61.289-25.888-72.462-56.422c-3.319-9.183-5.089-19.138-5.089-29.429
			c0-47.679,38.609-86.288,86.29-86.288C2954.831,1441.378,2974.301,1449.011,2989.347,1461.621z"/>
		<path style="fill:#466AA5;" d="M2973.969,1507.091c0,0,0,0,0,0.11c-1.217,2.877-2.212,5.531-3.318,8.298
			c-1.659,4.424-3.43,8.629-5.089,12.831c-2.544,6.196-5.089,12.171-7.522,17.702c-0.553,1.326-1.106,2.544-1.66,3.76
			c-1.105,2.544-2.212,4.98-3.208,7.303c-2.213,4.867-4.425,9.513-6.527,13.829c-4.093,1.326-8.407,1.99-12.943,1.99
			c-13.718,0-25.997-6.085-34.294-15.819c-6.859-7.854-10.953-18.145-10.953-29.429c0-19.468,12.169-35.954,29.316-42.479
			c4.979-1.771,10.289-2.877,15.931-2.877C2951.291,1482.31,2966.558,1492.376,2973.969,1507.091z"/>
		<path style="fill:#5F87C1;" d="M2973.969,1507.091c0,0,0,0,0,0.11c-1.217,2.877-2.212,5.531-3.318,8.298
			c-1.659,4.424-3.43,8.629-5.089,12.831c-2.544,6.196-5.089,12.171-7.522,17.702c-0.553,1.326-1.106,2.544-1.66,3.76
			c-37.171-16.48-39.715-48.897-38.609-64.605c4.979-1.771,10.289-2.877,15.931-2.877
			C2951.291,1482.31,2966.558,1492.376,2973.969,1507.091z"/>
		<path style="fill:#3F6098;" d="M1865.837,1239.259l-4.507,66.032c0,8.502-6.886,15.387-15.38,15.387h-120.337
			c-21.136,0-14.849-31.348-13.146-51.132l13.3-155.107c0-2.993,0.154-5.953,0.462-8.869
			C1747.201,1154.443,1789.207,1221.434,1865.837,1239.259z"/>
		<path style="fill:#466AA5;" d="M2295.344,1168.3H2070.96c-9.462,0-17.204-7.742-17.204-17.204v-118.501
			c0-9.462,7.742-17.204,17.204-17.204h224.384c9.461,0,17.203,7.742,17.203,17.204v118.501
			C2312.547,1160.558,2304.805,1168.3,2295.344,1168.3z"/>
		<path style="fill:#466AA5;" d="M2013.217,1168.3H1912.69c-6.56,0-11.927-5.367-11.927-11.927v-129.056
			c0-6.56,5.367-11.927,11.927-11.927h100.526c6.56,0,11.927,5.367,11.927,11.927v129.056
			C2025.144,1162.933,2019.776,1168.3,2013.217,1168.3z"/>
		<path style="fill:#466AA5;" d="M2585.798,1168.3h-224.384c-9.462,0-17.203-7.742-17.203-17.204v-118.501
			c0-9.462,7.741-17.204,17.203-17.204h224.384c9.462,0,17.204,7.742,17.204,17.204v118.501
			C2603.002,1160.558,2595.26,1168.3,2585.798,1168.3z"/>
		<path style="fill:#466AA5;" d="M2872.316,1168.3h-224.384c-9.462,0-17.203-7.742-17.203-17.204v-118.501
			c0-9.462,7.741-17.204,17.203-17.204h224.384c9.461,0,17.203,7.742,17.203,17.204v118.501
			C2889.52,1160.558,2881.777,1168.3,2872.316,1168.3z"/>
		<path style="fill:#466AA5;" d="M3005.83,1143.231c1.992,8.411,3.762,16.708,5.311,25.113h-76.334
			c-9.515,0-17.258-7.744-17.258-17.259v-118.483c0-9.513,7.743-17.256,17.258-17.256h20.467c0.553,0.994,1.105,1.99,1.659,2.984
			c1.549,2.766,3.098,5.646,4.646,8.411c10.399,19.581,19.249,39.271,26.661,58.963c0.443,1.218,0.885,2.434,1.327,3.651
			c0.774,1.991,1.438,3.984,2.103,5.975c1.327,3.648,2.545,7.301,3.762,10.952c1.105,3.538,2.213,7.189,3.318,10.73
			c0.111,0.443,0.332,0.997,0.442,1.439c0.886,2.984,1.659,5.861,2.545,8.849C3003.176,1132.611,3004.613,1137.922,3005.83,1143.231
			z"/>
	</g>
	<g>
		<path style="fill:#233862;" d="M1112.655,1120.819c-4.185-6.354-20.797-2.797-37.106,7.943s-26.138,24.598-21.953,30.951
			c4.184,6.354,20.797,2.798,37.106-7.942C1107.01,1141.03,1116.839,1127.173,1112.655,1120.819z"/>
		<g>
			<path style="fill:#233862;" d="M1027.455,1356.895l3.218,0.193c-0.028-0.072,1.253-56.231,6.179-78.952
				c9.178-42.333,33.166-75.472,33.429-75.756l-5.763-1.848c-0.284,0.307-4.834,7.354-11.276,20.355
				c-5.936,11.98-15.483,31.938-19.697,55.182C1029.383,1299.022,1027.335,1356.592,1027.455,1356.895z"/>
		</g>
		<path style="fill:#A53D38;" d="M1085.645,1120.32c0,0-21.045-4.489-31.147,12.628c-10.102,17.116-10.663,46.861-17.398,56.589
			c-6.734,9.728-18.613,50.785-5.986,59.973c12.627,9.187,90.416-0.337,94.782-4.526c4.366-4.188-0.262-47.307-7.862-59.795
			C1110.432,1172.7,1128.952,1113.96,1085.645,1120.32z"/>
		<path style="fill:#FFB27D;" d="M1121.44,1328.017c-14.835-47.42,1.892-75.546,0.284-99.271
			c-1.205-17.763,2.24-18.212-0.852-23.092c-3.145-4.964-20.442-8.056-22.029-8.199c-1.233-0.649-1.527-6.188-1.512-11.632
			c0.015-6.532,0.516-13.467,0.516-13.467l-22.034-4.363l-1.311-0.258c0.055,15.321-3.975,25.385-6.899,27.741
			c-2.736,0.281-14.491,1.606-21.733,4.323c-2.727,1.021-4.808,2.24-5.534,3.67c-6.051,11.938-12.091,42.063-16.337,63.553
			c-2.366,11.978-4.171,21.274-5.113,23.244c-2.627,5.496-10.653,35.739-17.511,50.663l7.564,0.293c0,0,30.083-40.944,32.71-52.134
			c0.833-3.54,2.841-10.524,5.202-18.409c5.208,14.313,7.891,20.335,7.758,25.904c-0.171,7.218-5.065,13.705-15.294,36.647
			C1033.664,1345.907,1136.586,1376.449,1121.44,1328.017z"/>
		<path style="fill:#FFB27D;" d="M1065.144,1553.376c1.451,5.769,3.047,11.26,4.672,16.372c0.349,1.096,0.692,2.173,1.042,3.227
			c0.175,0.524,0.349,1.042,0.518,1.554c0.343,1.012,0.681,2.005,1.018,2.975c0.439,1.265,0.879,2.499,1.313,3.69
			c0.319,0.886,0.638,1.752,0.951,2.602c4.829,12.951,8.875,21.158,8.875,21.158l9.622-0.663c0,0-3.612-17.184-4.335-41.798
			c-0.025-0.879-0.048-1.764-0.066-2.661c-0.036-1.909-0.06-3.854-0.06-5.841c0-0.813,0.006-1.638,0.012-2.469
			c0.193-21.2,2.818-46.254,11.193-70.175c6.81-19.448,11.747-37.644,15.318-54.088c11.524-53.081,8.814-87.955,8.814-87.955
			l-54.129,6.334l-2.523,0.295c-0.229,24.861-0.867,58.615-1.427,85.006c-0.096,4.582-0.187,8.94-0.277,12.993
			c-0.373,16.943-0.656,28.527-0.656,28.527C1054.606,1494.87,1058.388,1526.504,1065.144,1553.376z"/>
		<path style="fill:#EF9E67;" d="M1097.847,1172.355c0,0-0.501,6.935-0.516,13.467c-12.33-0.348-18.847-11.596-21.518-17.83
			L1097.847,1172.355z"/>
		<path style="fill:#FFB27D;" d="M1131.467,1307.406c0,0-2.566,35.784-1.711,40.054c0.855,4.27-0.281,19.512-6.127,22.317
			C1117.781,1372.584,1106.234,1298.911,1131.467,1307.406z"/>
		<path style="fill:#FFB27D;" d="M1101.965,1178.541c0,0-29.172,0.481-29.192-17.69c-0.02-18.172-3.799-30.348,14.826-31.423
			c18.625-1.076,22.251,5.854,23.733,11.918S1109.553,1177.947,1101.965,1178.541z"/>
		<path style="fill:#A53D38;" d="M1100.885,1128.982c0,0-7.987,21.318-20.245,24.471c-12.258,3.152-17.575-0.132-17.575-0.132
			s9.402-7.47,11.354-20.508C1074.419,1132.813,1094.86,1118.836,1100.885,1128.982z"/>
		<path style="fill:#A53D38;" d="M1098.906,1130.713c0,0,5.965,4.76,7.419,9.387c1.454,4.628,2.108,14.153,4.885,13.829
			c0,0,6.018-14.49-0.745-22.687C1103.293,1122.55,1098.906,1130.713,1098.906,1130.713z"/>
		<path style="fill:#FFA412;" d="M1121.293,1206.227c0,0,22.148,94.385,15.305,102.395c-6.843,8.009-24.377,9.292-26.943,7.582
			C1107.09,1314.492,1121.293,1206.227,1121.293,1206.227z"/>
		<path style="fill:#A53D38;" d="M1100.014,1131.434c0,0-5.691,22.324-21.157,29.475c0,0,15.467-13.717,16.78-28.453
			C1096.95,1117.717,1100.014,1131.434,1100.014,1131.434z"/>
		<path style="fill:#FFB27D;" d="M1034.093,1548.716c3.113,33.212,16.817,54.695,16.817,54.695l4.678,4.257
			c0,0,4.263-24.318,7.34-52.16c2.932-26.463,6.954-54.467,11.5-63.017c6.798-12.771,11.808-38.89,15.414-66.484
			c5.961-45.664,8.074-95.38,8.074-95.38l-54.882-2.722c-5.521,9.279-7.924,24.5-8.496,41.805
			c-0.602,18.195,0.83,38.697,2.818,57.02c2.776,25.649,6.641,47.03,7.538,51.835c0,0.006,0,0.012,0.006,0.024
			c0.121,0.632-0.066,1.265-0.361,1.836C1033.617,1502.041,1032.04,1526.77,1034.093,1548.716z"/>
		<path style="fill:#BC3F3F;" d="M1116.575,1541.79c-47.266,17.765-118.387-2.806-118.387-2.806s2.617-14.695,6.466-36.044
			c9.665-53.579,27.063-149.068,30.125-159.196c4.277-14.146,19.827-47.163,19.827-47.163c7.288,2.429,14.832,3.695,22.025,4.234
			c20.767,1.564,38.584-2.899,38.584-2.899s2.899,9.708,9.092,29.987C1130.5,1348.192,1116.575,1541.79,1116.575,1541.79z"/>
		<path style="fill:#FFB93E;" d="M1124.06,1242.63c-2.363,23.338-8.845,54.996-8.845,54.996c-3.575,1.892-7.217,3.279-10.854,4.265
			c-25.086,6.814-49.746-5.59-49.746-5.59s-0.039-0.723-0.101-1.596c-0.05-0.722-0.124-1.532-0.208-2.131
			c-0.185-1.32-6.14-15.488-6.14-15.488s-0.225,1.103-0.617,2.982c-2.178,10.356-9.648,44.394-14.227,47.459
			c-2.654,1.769-11.146,1.797-19.115-0.374c-8.295-2.255-16.017-6.899-16.017-14.447c0-9.663,17.571-53.362,30.232-83.304
			c0.006-0.033,0.011-0.045,0.011-0.045c6.74-15.963,10.656-27.068,15.812-28.31c0,0,34.681,14.114,53.892,11.949
			c6.6-0.744,18.711-6.317,22.426-7.704c0.106,0.111,0.213,0.229,0.309,0.347c0.079,0.089,0.152,0.185,0.219,0.279
			c0.075,0.104,0.141,0.206,0.203,0.308c2.815,4.147,2.37,11.027,2.514,13.653C1124.088,1225.009,1125.115,1232.184,1124.06,1242.63
			z"/>
		<path style="fill:#FFA412;" d="M1048.164,1277.316c0,0,5.955,14.21,6.142,15.535c0.084,0.596,0.156,1.414,0.21,2.137
			c2.878,2.349,6.358,4.131,9.905,5.209c10.073,3.053,14.451-16.258,13.849-25.891c-0.602-9.634-14.848-37.132-19.593-37.704
			C1053.938,1236.036,1048.164,1277.316,1048.164,1277.316z"/>
		<path style="fill:#E58638;" d="M1047.55,1280.303c0.392-1.884,0.614-2.986,0.614-2.986
			C1047.851,1278.334,1047.646,1279.328,1047.55,1280.303z"/>
		<g>
			<path style="fill:#A53232;" d="M1089.139,1304.072c18.388,0,25.684-5.16,26.245-5.591l1.189-8.66
				c-0.176,0.131-24.85,14.946-63.034,0.757l0.81,6.561C1069.033,1302.597,1079.588,1304.072,1089.139,1304.072z"/>
		</g>
		<path style="fill:#FFA412;" d="M998.189,1313.04c0,7.574,7.725,12.229,16.016,14.492c-11.428-13.607,13.578-95.945,14.216-98.047
			C1015.765,1259.519,998.189,1303.352,998.189,1313.04z"/>
		<g>
			<path style="fill:#233862;" d="M1077.994,1613.021h6.142c2.057-0.324,3.576-0.919,5.686-1.195
				c3.204-0.42,4.679,0.894,4.973,1.195c0.04,0.039,0.057,0.062,0.057,0.062h26.089c0.656-0.937,0.026-3.108-0.591-4.706
				c-0.416-1.085-1.322-1.908-2.442-2.232c-2.767-0.801-8.221-1.515-13.215-6.036c-2.811-2.539-13.57-9.337-13.57-9.337
				l-0.057-0.014c-0.236,0.005-1.361,0.351-6.255,4.482c-2.53,2.132-6.842-3.012-6.842-3.012s-0.81,0.67-1.414,1.918
				c-0.486,0.984-0.84,2.337-0.56,4.005c0.39,2.351-0.867,6.72-1.869,9.674c-0.608,1.791-1.121,3.061-1.121,3.061
				S1072.71,1612.36,1077.994,1613.021z"/>
			<path style="fill:#466AA5;" d="M1076.553,1594.146c1.466,1.033,4.561,3.068,6.614,3.335c2.771,0.364,7.954-6.71,7.954-6.71
				l-0.057-0.014c-0.236,0.005-1.361,0.351-6.255,4.482c-2.53,2.132-6.842-3.012-6.842-3.012S1077.157,1592.898,1076.553,1594.146z"
				/>
			<path style="fill:#466AA5;" d="M1077.994,1613.021h6.142c2.057-0.324,3.576-0.919,5.686-1.195
				c3.204-0.42,4.679,0.894,4.973,1.195c0.04,0.039,0.057,0.062,0.057,0.062h26.089c0.656-0.937,0.026-3.108-0.591-4.706
				c-0.792-0.705-1.015,3.061-1.453,3.66s-21.283,0.219-22.487-0.657c-1.204-0.875-4.815-2.407-9.849-1.204
				c-4.382,1.047-10.838-1.637-12.436-2.351c-0.608,1.791-1.121,3.061-1.121,3.061S1072.71,1612.36,1077.994,1613.021z"/>
		</g>
		<g>
			<path style="fill:#233862;" d="M1045.22,1613.021h6.142c2.057-0.324,3.576-0.919,5.686-1.195c3.204-0.42,4.68,0.894,4.973,1.195
				c0.04,0.039,0.057,0.062,0.057,0.062h26.089c0.657-0.937,0.026-3.108-0.591-4.706c-0.416-1.085-1.322-1.908-2.443-2.232
				c-2.767-0.801-8.221-1.515-13.215-6.036c-2.81-2.539-13.57-9.337-13.57-9.337l-0.057-0.014c-0.236,0.005-1.361,0.351-6.255,4.482
				c-2.53,2.132-6.842-3.012-6.842-3.012s-0.81,0.67-1.414,1.918c-0.486,0.984-0.84,2.337-0.56,4.005
				c0.39,2.351-0.867,6.72-1.869,9.674c-0.608,1.791-1.121,3.061-1.121,3.061S1039.936,1612.36,1045.22,1613.021z"/>
			<path style="fill:#466AA5;" d="M1043.779,1594.146c1.467,1.033,4.562,3.068,6.614,3.335c2.771,0.364,7.954-6.71,7.954-6.71
				l-0.057-0.014c-0.236,0.005-1.361,0.351-6.255,4.482c-2.53,2.132-6.842-3.012-6.842-3.012S1044.384,1592.898,1043.779,1594.146z"
				/>
			<path style="fill:#466AA5;" d="M1045.22,1613.021h6.142c2.057-0.324,3.576-0.919,5.686-1.195c3.204-0.42,4.68,0.894,4.973,1.195
				c0.04,0.039,0.057,0.062,0.057,0.062h26.089c0.657-0.937,0.026-3.108-0.591-4.706c-0.792-0.705-1.016,3.061-1.454,3.66
				c-0.438,0.6-21.283,0.219-22.487-0.657c-1.204-0.875-4.815-2.407-9.849-1.204c-4.382,1.047-10.838-1.637-12.436-2.351
				c-0.608,1.791-1.121,3.061-1.121,3.061S1039.936,1612.36,1045.22,1613.021z"/>
		</g>
		<path style="fill:#A53232;" d="M1004.654,1502.94c9.665-53.579,27.063-149.068,30.125-159.196
			c4.277-14.146,19.827-47.163,19.827-47.163c7.288,2.429,14.832,3.695,22.025,4.234
			C1077.461,1312.371,1083.542,1427.858,1004.654,1502.94z"/>
		<g>
			<path style="fill:#233862;" d="M1078.324,1357.153l-3.215-0.242c0.038-0.068,6.293-56.367,4.456-79.74
				c-3.422-43.549-22.753-79.909-22.976-80.229l5.959-1.067c0.241,0.345,3.806,8.002,8.447,21.867
				c4.277,12.775,11.063,34.012,12.124,57.811C1084.167,1299.055,1078.483,1356.866,1078.324,1357.153z"/>
		</g>
		<g>
			<path style="fill:#D2E4FF;" d="M1039.346,1344.793c0,0,3.125-7.691,8.093-9.611l25.37,4.781c0,0-6.263,5.958-6.853,9.845
				L1039.346,1344.793z"/>
			<path style="fill:#233862;" d="M1071.197,1388.202l-43.36-8.172c-2.037-0.384-3.378-2.347-2.994-4.384l5.417-28.746
				c0.384-2.037,2.347-3.378,4.384-2.993l43.36,8.171c2.038,0.385,3.378,2.348,2.994,4.385l-5.418,28.745
				C1075.198,1387.246,1073.235,1388.586,1071.197,1388.202z"/>
			<g>
				
					<rect x="1034.739" y="1328.921" transform="matrix(1 0.0088 -0.0088 1 11.7955 -9.1019)" style="fill:#E58638;" width="20.735" height="26.581"/>
				
					<rect x="1033.551" y="1328.911" transform="matrix(1 0.0088 -0.0088 1 11.7952 -9.0913)" style="fill:#EE9849;" width="20.735" height="26.581"/>
			</g>
			<g>
				
					<rect x="1040.338" y="1335.846" transform="matrix(0.7941 0.6078 -0.6078 0.7941 1036.3903 -360.8188)" style="fill:#578E9B;" width="20.735" height="26.581"/>
				
					<rect x="1038.498" y="1334.438" transform="matrix(0.7941 0.6078 -0.6078 0.7941 1035.0886 -359.9897)" style="fill:#74ACBE;" width="20.735" height="26.581"/>
			</g>
			<path style="fill:#2B478B;" d="M1060.604,1386.206l-41.517-7.824c-2.547-0.48-4.222-2.934-3.742-5.48l5.07-26.901
				c0.48-2.547,2.934-4.222,5.48-3.742l41.517,7.824c2.546,0.48,4.222,2.934,3.742,5.48l-5.07,26.901
				C1065.604,1385.01,1063.151,1386.686,1060.604,1386.206z"/>
		</g>
		<path style="fill:#233862;" d="M1050.79,1143.94c0,0-13.272-26.418,5.274-36.86c18.547-10.443,32.122-6.343,42.326,6.429
			L1050.79,1143.94z"/>
		<path style="fill:#2B478B;" d="M1125.508,1110.605c-3.816-6.117-17.173-5.129-33.291,1.471
			c-6.303,2.576-13.015,6.017-19.75,10.214c-8.379,5.226-15.674,10.944-21.399,16.539c-10.674,10.438-15.882,20.429-12.425,25.974
			c1.061,1.688,2.644,2.784,5.023,3.418c2.363-5.09,9.147-9.857,11.067-13.823c2.714-5.605,9.58-15.765,22.146-23.604
			c9.653-6.021,19.255-9.563,25.86-9.99c3.845-0.246,6.679,0.556,7.924,2.554c0.971,1.561,0.87,3.671-0.134,6.112
			c0.942,1.582,2.009,3.815,2.89,6.779C1123.869,1125.933,1128.931,1116.089,1125.508,1110.605z"/>
		<path style="fill:#FFB27D;" d="M1001.375,1340.929c0,0-7.19,7.355-8.331,8.208c-1.14,0.852-2.462,8.454-1.425,9.263
			c2.067,1.612,3.575-2.11,6.842-3.963c3.268-1.854,5.132-4.448,5.132-3.593s-4.143,4.135-3.635,4.847
			c0.507,0.713,6.13-3.207,7.413-4.063c1.283-0.855,1.568-10.406,1.568-10.406L1001.375,1340.929z"/>
	</g>
	<g>
		<path style="fill:#233862;" d="M934.938,1161.575l1.736-0.121l2.113-6.811c8.133-20.16,0.859-27.51-4.182-30.914
			c-6.338-4.28-13.081-4.944-13.081-4.944c-3.754-0.538-6.977-0.377-9.749,0.284c-0.01,0-0.033,0.002-0.033,0.002
			c-30.36-6.258-33.262,49.709-28.746,53.121c4.516,3.411,15.454,3.019,15.454,3.019c-0.602-0.595-1.254-1.915-1.254-1.915
			c3.311,2.71,13.096,1.75,13.096,1.75c-3.814-4.078-5.029-7.979-4.943-11.391l7.925-0.558c2.012,5.147,5.127,10.198,7.975,12.351
			c5.236,3.959,15.724,2.966,15.724,2.966c-0.489-0.527-0.865-2.183-0.865-2.183c0.377,1.054,2.283,1.781,2.283,1.781
			c1.305,0,4.007-1.332,4.007-1.332S936.227,1176.662,934.938,1161.575z"/>
		<path style="fill:#FFB27D;" d="M947.712,1305.82c23.814-6.06,49.99-43.003,49.99-43.003l-6.705-5.816
			c-6.942,8.185-35.806,22.28-35.806,22.28c0.155-7.49-0.041-14.321-0.514-20.539c-3.203-42.26-19.134-56.339-23.482-59.429
			c-0.702-0.501-1.104-0.711-1.104-0.711s-0.017,0.307-0.041,0.889c-0.063,1.256-0.179,3.786-0.297,7.258
			C928.869,1232.614,927.813,1310.89,947.712,1305.82z"/>
		<path style="fill:#FFB27D;" d="M990.997,1257.001c0.1-0.999,0.771-15.517,3.655-18.28c2.885-2.765,8.579-6.529,10.215-6.225
			c1.636,0.305,7.194,9.549,4.57,15.917c-2.624,6.367-11.736,14.404-11.736,14.404L990.997,1257.001z"/>
		<g>
			<path style="fill:#F1A34F;" d="M985.08,1258.689l15.683,0.655c0.521,0.022,0.96-0.382,0.982-0.902l1.25-29.905
				c0.022-0.521-0.382-0.96-0.903-0.981l-15.683-0.656c-0.521-0.021-0.96,0.383-0.982,0.903l-1.25,29.904
				C984.155,1258.228,984.559,1258.667,985.08,1258.689z"/>
			<path style="fill:#D86713;" d="M989.154,1258.859l14.226,0.595c0.923,0.039,1.702-0.678,1.741-1.601l1.19-28.447
				c0.039-0.923-0.678-1.703-1.601-1.741l-14.226-0.595c-0.923-0.039-1.703,0.678-1.741,1.601l-1.19,28.447
				C987.515,1258.041,988.231,1258.821,989.154,1258.859z"/>
		</g>
		<path style="fill:#FFB27D;" d="M1006.058,1233.606c0,0-4.275-4.773-8.551-1.126c-4.276,3.647,0.283,11.437,3.992,13.566
			c3.709,2.129,4.899,3.239,4.899,3.239L1006.058,1233.606z"/>
		<path style="fill:#CB7D45;" d="M895.859,1551.515c1.451,5.769,3.047,11.26,4.672,16.371c0.35,1.096,0.692,2.174,1.042,3.228
			c0.174,0.523,0.349,1.042,0.518,1.554c0.343,1.012,0.681,2.005,1.018,2.975c0.439,1.264,0.879,2.498,1.313,3.69
			c0.319,0.885,0.638,1.752,0.952,2.602c4.829,12.951,8.875,21.157,8.875,21.157l9.622-0.662c0,0-3.613-17.184-4.335-41.798
			c-0.024-0.879-0.048-1.765-0.066-2.661c-0.036-1.909-0.061-3.854-0.061-5.841c0-0.813,0.006-1.638,0.012-2.469
			c0.193-21.2,2.818-46.254,11.193-70.176c6.81-19.447,11.748-37.644,15.318-54.087c11.524-53.081,8.815-87.955,8.815-87.955
			l-54.129,6.334l-2.523,0.295c-0.229,24.86-0.867,58.615-1.427,85.005c-0.097,4.582-0.187,8.941-0.277,12.994
			c-0.373,16.943-0.656,28.527-0.656,28.527C885.322,1493.008,889.103,1524.643,895.859,1551.515z"/>
		<path style="fill:#FFB27D;" d="M870.031,1331.369c10.23-22.942,15.124-29.43,15.294-36.648c0.136-5.708-2.679-11.867-8.146-26.969
			c-1.287-3.559-2.176-7.219-2.723-10.917c-4.324-29.114,12.513-60.588,22.976-62.732c2.912-0.77,7.847-11.285,7.787-28.229
			l1.311,0.258l22.034,4.363c0,0-0.502,6.934-0.516,13.467c-0.015,5.443,0.279,10.982,1.512,11.632
			c1.586,0.144,3.029,0.433,3.029,0.433s18.646,13.096,19.851,30.858c1.608,23.726-15.119,51.851-0.284,99.271
			C967.301,1374.587,864.379,1344.046,870.031,1331.369z"/>
		<path style="fill:#EF9E67;" d="M928.563,1170.494c0,0-0.502,6.934-0.516,13.467c-12.33-0.348-18.847-11.596-21.518-17.83
			L928.563,1170.494z"/>
		<path style="fill:#FFB27D;" d="M932.681,1176.68c0,0-29.172,0.48-29.192-17.69c-0.02-18.172-3.799-30.348,14.826-31.424
			c18.625-1.075,22.251,5.854,23.733,11.919C943.53,1145.548,940.269,1176.086,932.681,1176.68z"/>
		<path style="fill:#233862;" d="M931.601,1127.121c0,0-7.987,21.318-20.246,24.471c-12.258,3.152-17.575-0.133-17.575-0.133
			s9.402-7.469,11.354-20.507C905.134,1130.952,925.576,1116.974,931.601,1127.121z"/>
		<path style="fill:#233862;" d="M929.621,1128.852c0,0,5.965,4.76,7.419,9.387c1.455,4.627,2.108,14.153,4.885,13.829
			c0,0,6.018-14.49-0.745-22.688C934.009,1120.688,929.621,1128.852,929.621,1128.852z"/>
		<path style="fill:#FFB27D;" d="M832.091,1355.737l8.758,2.626c0,0,28.89-47.934,31.517-60.406
			c0.857-4.061,2.958-12.187,5.409-21.29c5.073-18.854,11.62-41.924,11.62-41.924l2.156-9.339l7.354-31.848
			c0,0-14.082,1.438-22.318,4.883c-2.727,1.138-4.808,2.496-5.534,4.09c-6.051,13.305-12.092,46.882-16.337,70.834
			c-2.366,13.35-4.171,23.712-5.114,25.907C846.975,1305.396,838.949,1339.104,832.091,1355.737z"/>
		<path style="fill:#233862;" d="M930.729,1129.571c0,0-5.691,22.325-21.158,29.475c0,0,15.467-13.716,16.78-28.453
			C927.665,1115.855,930.729,1129.571,930.729,1129.571z"/>
		<path style="fill:#D9935C;" d="M864.809,1546.854c3.113,33.212,16.817,54.695,16.817,54.695l4.678,4.257
			c0,0,4.263-24.319,7.34-52.16c2.932-26.463,6.954-54.467,11.5-63.017c6.798-12.771,11.807-38.89,15.414-66.484
			c5.961-45.664,8.074-95.38,8.074-95.38l-54.882-2.722c-5.522,9.278-7.924,24.5-8.496,41.805
			c-0.602,18.195,0.831,38.697,2.818,57.02c2.776,25.649,6.641,47.03,7.539,51.835c0,0.006,0,0.012,0.006,0.024
			c0.12,0.632-0.066,1.265-0.361,1.836C864.333,1500.18,862.755,1524.908,864.809,1546.854z"/>
		<path style="fill:#ED7D2B;" d="M928.854,1255.104c1.234,30.147,5.744,59.999,18.87,58.079
			c16.088-2.349,20.279-17.365,21.134-28.528c0.53-6.948-0.235-12.403-0.235-12.403s-7.917-0.036-9.2-1.216
			c-6.081-5.618-4.275-60.711-7.286-66.431c-3.01-5.72-22.543-9.393-22.543-9.393S927.626,1225.306,928.854,1255.104z"/>
		<path style="fill:#ED7D2B;" d="M928.854,1255.104c1.234,30.147,5.744,59.999,18.87,58.079
			c16.088-2.349,20.279-17.365,21.134-28.528c-3.95-0.198-10.904-1.162-13.668-5.377c-3.956-6.033-16.299-44.868-16.299-44.868
			S934.039,1243.128,928.854,1255.104z"/>
		<path style="fill:#233862;" d="M895.859,1551.515c1.451,5.769,3.047,11.26,4.672,16.371c0.35,1.096,0.692,2.174,1.042,3.228
			c0.174,0.523,0.349,1.042,0.518,1.554c0.343,1.012,0.681,2.005,1.018,2.975c0.439,1.264,0.879,2.498,1.313,3.69
			c0.319,0.885,0.638,1.752,0.952,2.602c4.829,12.951,8.875,21.157,8.875,21.157l9.622-0.662c0,0-3.613-17.184-4.335-41.798
			c-0.024-0.879-0.048-1.765-0.066-2.661c-0.036-1.909-0.061-3.854-0.061-5.841c0-0.813,0.006-1.638,0.012-2.469
			c0.193-21.2,2.818-46.254,11.193-70.176c6.81-19.447,11.748-37.644,15.318-54.087c-5.72,1.181-10.756-0.024-25.373-1.252
			c-1.536-0.129-8.881,8.965-16.137,21.001c-0.373,16.943-8.689,25.451-8.689,25.451
			C885.322,1493.008,889.103,1524.643,895.859,1551.515z"/>
		<path style="fill:#2B478B;" d="M864.809,1546.854c3.113,33.212,16.817,54.695,16.817,54.695l4.678,4.257
			c0,0,4.263-24.319,7.34-52.16c2.932-26.463,6.954-54.467,11.5-63.017c6.798-12.771,11.807-38.89,15.414-66.484
			c-5.052,2.101-22.242,7.563-52.486,0.723c2.776,25.649,6.641,47.03,7.539,51.835c0,0.006,0,0.012,0.006,0.024
			c0.12,0.632-0.066,1.265-0.361,1.836C864.333,1500.18,862.755,1524.908,864.809,1546.854z"/>
		<path style="fill:#2B478B;" d="M854.296,1385.238c0,0,11.482,3.547,28.397,5.887c20.944,2.896,50.223,3.939,76.37-5.887
			c0,0,2.155-38.909-4.041-59.191c-6.196-20.288-9.092-29.991-9.092-29.991s-24.822,6.224-50.032,1.397
			c-3.541-0.674-7.088-1.572-10.573-2.733c0,0-15.551,33.017-19.828,47.164C861.222,1356.032,854.296,1385.238,854.296,1385.238z"/>
		<path style="fill:#233862;" d="M854.296,1385.238c0,0,11.482,3.547,28.397,5.887c31.018-17.588,15.894-91.602,15.894-91.602
			c-0.92-0.746-1.818-1.437-2.689-2.07c-3.541-0.674-7.088-1.572-10.573-2.733c0,0-15.551,33.017-19.828,47.164
			C861.222,1356.032,854.296,1385.238,854.296,1385.238z"/>
		<path style="fill:#F99746;" d="M828.905,1311.178c0,7.575,7.725,12.229,16.016,14.493c7.972,2.18,16.461,2.149,19.117,0.373
			c4.582-3.07,12.048-37.21,14.228-47.603c0.391-1.885,0.614-2.986,0.614-2.986s5.955,14.21,6.141,15.534
			c0.084,0.597,0.157,1.415,0.211,2.138c0.06,0.873,0.096,1.596,0.096,1.596s32.315,16.311,60.602,1.331
			c0,0,11.5-66.461,6.509-77.901c-2.481-5.684-15.42-17.412-20.598-22.47c-1.162-1.139-1.047-3.391-0.596-5.449
			c0.373-1.74-1.192-3.27-2.914-2.824c-3.33,0.867-9.321,0.717-15.739-1.391c-3.197-1.042-6.497-2.571-9.622-4.702
			c-0.909-0.621-2.143-0.049-2.282,1.041c-0.488,3.962-1.686,11.199-3.872,11.199c-3.01-0.018-23.554,2.505-25.06,5.046
			c-0.524,0.885-5.865,12.97-12.608,28.979c0,0-0.006,0.012-0.012,0.042C846.48,1257.657,828.905,1301.49,828.905,1311.178z"/>
		<path style="fill:#ED7D2B;" d="M878.88,1275.455c0,0,5.955,14.21,6.141,15.534c0.084,0.597,0.157,1.415,0.211,2.138
			c2.878,2.349,6.358,4.131,9.905,5.208c10.073,3.053,14.45-16.257,13.848-25.891c-0.602-9.634-14.848-37.132-19.592-37.703
			C884.654,1234.175,878.88,1275.455,878.88,1275.455z"/>
		<path style="fill:#E58638;" d="M878.266,1278.441c0.391-1.885,0.614-2.986,0.614-2.986
			C878.566,1276.473,878.362,1277.467,878.266,1278.441z"/>
		<g>
			<path style="fill:#B64C41;" d="M919.571,1303.379c18.388,0,25.967-6.328,26.528-6.759l1.19-8.66
				c-0.176,0.13-24.85,14.945-63.034,0.757l0.81,6.561C899.749,1300.734,910.021,1303.379,919.571,1303.379z"/>
		</g>
		<path style="fill:#ED7D2B;" d="M828.905,1311.178c0,7.575,7.725,12.229,16.016,14.493c-11.428-13.607,13.578-95.945,14.216-98.047
			C846.48,1257.657,828.905,1301.49,828.905,1311.178z"/>
		<path style="fill:#ED7D2B;" d="M896.816,1193.557c0,0,15.384,9.742,27.022,7.437c0,0,2.794-1.765-1.06-3.541
			c-3.619-1.661-12.036-6.581-10.188-11.434c-3.197-1.042-6.497-2.571-9.622-4.702c-0.909-0.621-2.143-0.049-2.282,1.041
			C900.2,1186.319,899.002,1193.557,896.816,1193.557z"/>
		<g>
			<path style="fill:#233862;" d="M908.709,1611.16h6.142c2.058-0.324,3.576-0.919,5.687-1.195c3.204-0.42,4.679,0.894,4.973,1.195
				c0.039,0.039,0.057,0.062,0.057,0.062h26.089c0.657-0.938,0.026-3.108-0.591-4.706c-0.416-1.086-1.322-1.908-2.443-2.232
				c-2.766-0.801-8.221-1.515-13.215-6.036c-2.81-2.539-13.57-9.337-13.57-9.337l-0.057-0.014c-0.236,0.004-1.361,0.351-6.255,4.482
				c-2.53,2.132-6.842-3.012-6.842-3.012s-0.81,0.67-1.414,1.917c-0.486,0.985-0.841,2.338-0.56,4.006
				c0.39,2.351-0.867,6.72-1.869,9.674c-0.608,1.791-1.121,3.061-1.121,3.061S903.425,1610.499,908.709,1611.16z"/>
			<path style="fill:#466AA5;" d="M907.269,1592.284c1.466,1.033,4.561,3.069,6.614,3.336c2.771,0.363,7.954-6.71,7.954-6.71
				l-0.057-0.014c-0.236,0.004-1.361,0.351-6.255,4.482c-2.53,2.132-6.842-3.012-6.842-3.012S907.873,1591.037,907.269,1592.284z"/>
			<path style="fill:#466AA5;" d="M908.709,1611.16h6.142c2.058-0.324,3.576-0.919,5.687-1.195c3.204-0.42,4.679,0.894,4.973,1.195
				c0.039,0.039,0.057,0.062,0.057,0.062h26.089c0.657-0.938,0.026-3.108-0.591-4.706c-0.792-0.705-1.016,3.06-1.454,3.659
				c-0.438,0.601-21.283,0.22-22.486-0.656c-1.204-0.876-4.815-2.407-9.849-1.204c-4.382,1.047-10.839-1.637-12.437-2.351
				c-0.608,1.791-1.121,3.061-1.121,3.061S903.425,1610.499,908.709,1611.16z"/>
		</g>
		<g>
			<path style="fill:#233862;" d="M875.935,1611.16h6.141c2.058-0.324,3.577-0.919,5.687-1.195c3.204-0.42,4.679,0.894,4.973,1.195
				c0.04,0.039,0.057,0.062,0.057,0.062h26.089c0.657-0.938,0.026-3.108-0.591-4.706c-0.416-1.086-1.322-1.908-2.442-2.232
				c-2.767-0.801-8.221-1.515-13.216-6.036c-2.81-2.539-13.57-9.337-13.57-9.337l-0.057-0.014c-0.237,0.004-1.362,0.351-6.255,4.482
				c-2.53,2.132-6.842-3.012-6.842-3.012s-0.81,0.67-1.414,1.917c-0.486,0.985-0.84,2.338-0.56,4.006
				c0.39,2.351-0.867,6.72-1.869,9.674c-0.608,1.791-1.121,3.061-1.121,3.061S870.652,1610.499,875.935,1611.16z"/>
			<path style="fill:#466AA5;" d="M874.495,1592.284c1.466,1.033,4.562,3.069,6.614,3.336c2.771,0.363,7.954-6.71,7.954-6.71
				l-0.057-0.014c-0.237,0.004-1.362,0.351-6.255,4.482c-2.53,2.132-6.842-3.012-6.842-3.012S875.099,1591.037,874.495,1592.284z"/>
			<path style="fill:#466AA5;" d="M875.935,1611.16h6.141c2.058-0.324,3.577-0.919,5.687-1.195c3.204-0.42,4.679,0.894,4.973,1.195
				c0.04,0.039,0.057,0.062,0.057,0.062h26.089c0.657-0.938,0.026-3.108-0.591-4.706c-0.792-0.705-1.016,3.06-1.453,3.659
				c-0.438,0.601-21.283,0.22-22.487-0.656s-4.815-2.407-9.849-1.204c-4.382,1.047-10.838-1.637-12.437-2.351
				c-0.608,1.791-1.121,3.061-1.121,3.061S870.652,1610.499,875.935,1611.16z"/>
		</g>
		<g>
			<path style="fill:#233862;" d="M810.391,1393.058c0.607-3.05,2.751-5.53,5.667-6.611c4.728-1.754,12.469-3.335,21.987-0.537
				c16.065,4.724,17.638,14.598,16.575,21.7c-1.063,7.103,2.087,18.423,1.624,26.477c-0.462,8.055-2.769,28.289-14.665,27.227
				c-11.896-1.063-50.24-11.368-50.24-11.368s-6.624-12.607,6.984-30.868C806.395,1408.244,809.332,1398.375,810.391,1393.058z"/>
			<g>
				<g>
					<path style="fill:#233862;" d="M817.753,1383.749l3.182,0.287c0.001-0.005,0.366-2.2,1.827-3.583
						c1.124-1.059,2.677-1.444,4.611-1.129c1.833,0.293,3.151,1.135,3.818,2.488c0.942,1.903,0.421,4.357,0.415,4.384l3.102,0.718
						c0.038-0.169,0.936-4.155-0.69-7.505c-1.117-2.314-3.114-3.648-5.878-4.168c-2.851-0.456-5.26,0.239-7.166,2.07
						C818.346,1379.837,817.776,1383.593,817.753,1383.749z"/>
				</g>
				<g>
					<path style="fill:#2B478B;" d="M783.456,1448.146c0,0,38.349,10.33,50.254,11.371c11.895,1.081,14.211-19.151,14.648-27.233
						c0.468-8.032-2.669-19.359-1.625-26.477c0.217-1.345,0.338-2.839,0.242-4.341c-0.307-6.336-3.856-13.534-16.792-17.332
						c-9.545-2.813-17.263-1.208-22.011,0.546c-2.9,1.084-5.068,3.553-5.67,6.594c-0.141,0.62-0.268,1.375-0.436,2.119
						c-1.366,5.652-4.526,14.425-11.633,23.912C776.821,1435.546,783.456,1448.146,783.456,1448.146z"/>
					<path style="fill:#233862;" d="M842.566,1433.983c0,0-5.333,5.139-12.539,3.327c-7.205-1.812-10.574-8.558-10.574-8.558
						L842.566,1433.983z"/>
					<path style="fill:#233862;" d="M814.763,1427.691c0,0-5.333,5.14-12.539,3.328c-7.205-1.812-10.574-8.558-10.574-8.558
						L814.763,1427.691z"/>
					<path style="fill:#233862;" d="M802.503,1391.273c-0.141,0.62-0.268,1.375-0.436,2.119c3.055,6.305,8.848,14.361,18.651,16.231
						c16.67,3.249,26.257-8.158,26.257-8.158c-0.307-6.336-3.856-13.534-16.792-17.332c-9.545-2.813-17.263-1.208-22.011,0.546
						C805.273,1385.764,803.104,1388.232,802.503,1391.273z"/>
					<path style="fill:#D86713;" d="M820.482,1413.117L820.482,1413.117c1.044,0.235,2.09-0.425,2.327-1.469l0.39-1.725
						c0.236-1.043-0.424-2.09-1.468-2.326l0,0c-1.043-0.236-2.091,0.424-2.327,1.468l-0.39,1.725
						C818.778,1411.834,819.439,1412.881,820.482,1413.117z"/>
				</g>
			</g>
		</g>
		<path style="fill:#FFB27D;" d="M832.712,1354.279c0,0-2.663,6.273-5.435,8.024c-2.772,1.751-5.407,5.953-5.982,9.339
			c-1.056,6.213,3.706,10.067,7.208,10.067c3.502,0,6.849-4.774,8.908-16.178c0.113-0.627,3.437-7.168,3.437-7.168L832.712,1354.279
			z"/>
	</g>
	<g>
		<g>
			<path style="fill:#233862;" d="M1352.564,1613.965l2.177-233.181c0,0,1.88-16.794,16.531-16.794
				c15.633,0,16.531,16.794,16.531,16.794s-0.225,1.452-1.829,1.452c-1.681,0-1.958-1.452-1.958-1.452s-0.692-12.947-12.745-12.947
				c-11.295,0-12.745,12.947-12.745,12.947v233.181H1352.564z"/>
			<path style="fill:#233862;" d="M1360.536,1613.965h-9.723l0.867-10.167c0,0-0.083-1.412,1.881-1.492
				c1.826-0.074,5.431-0.335,5.773,0.77C1359.635,1604.045,1360.536,1613.965,1360.536,1613.965z"/>
		</g>
		<path style="fill:#FFB27D;" d="M1371.391,1351.633l0.665,3.335c0,0,16.486-0.062,20.34,17.604c0,0,1.046,7.352-4.254,5.782
			s-4.476-5.32-11.98-7.376c-7.505-2.055-12.396-3.629-13.534-9.093l-1.227-6.079L1371.391,1351.633z"/>
		<path style="fill:#F99746;" d="M1313.095,1207.055c0,0,4.361,17.158,8.123,32.845c1.515,6.319,2.93,12.397,3.929,17.02
			c1.019,4.749,1.598,7.964,1.375,8.321c-3.271,5.309,2.704,37.678,7.43,49.432c0.416,1.043,0.991,2.264,1.681,3.619
			c6.608,12.956,24.203,38.384,24.203,38.384s4.963,0.519,8.21-0.706c2.708-1.026,4.559-4.337,4.559-4.337
			c-1.574-2.533-7.94-32.448-16.131-49.222c-3.504-7.176-8.666-73.749-15.453-82.713
			C1335.359,1212.221,1313.095,1207.055,1313.095,1207.055z"/>
		<path style="fill:#ED7D2B;" d="M1326.522,1265.24c-3.271,5.309,2.704,37.678,7.43,49.432c0.416,1.043,0.991,2.264,1.681,3.619
			c6.315-27.937-4.15-67.513-4.15-67.513c-2.613,1.034-4.698,3.188-6.335,6.141
			C1326.166,1261.668,1326.745,1264.883,1326.522,1265.24z"/>
		<path style="fill:#0F2949;" d="M1280.763,1588.28c0,0-1.68,25.284,3.095,25.638c0.635,0.047,24.217,0.047,24.217,0.047
			l30.419-0.001c0,0-0.512-7.427-9.312-8.96c-8.799-1.533-23.528-7.718-28.858-19.348
			C1294.716,1573.421,1280.763,1588.28,1280.763,1588.28z"/>
		<path style="fill:#163560;" d="M1235.012,1588.28c0,0-1.68,25.284,3.095,25.638c0.635,0.047,24.217,0.047,24.217,0.047
			l30.419-0.001c0,0-0.512-7.427-9.312-8.96c-8.8-1.533-23.528-7.718-28.859-19.348
			C1248.965,1573.421,1235.012,1588.28,1235.012,1588.28z"/>
		<path style="fill:#2B478B;" d="M1279.323,1527.337c-0.749,10.692-2.274,24.44-1.731,36.833c0.761,17.328,1.31,31.941,1.31,31.941
			c11.425,3.886,32.388-0.827,32.388-0.827s7.436-43.792,13.561-78.75c2.748-15.663,5.027-29.214,5.879-35.612
			c2.755-20.682-2.934-130.646-2.934-130.646s-30.915-19.814-43.688-9.599c-12.769,10.213-20.631,20.195-0.052,132.09
			C1285.618,1481.255,1281,1503.389,1279.323,1527.337z"/>
		<path style="fill:#233862;" d="M1279.323,1527.337c-0.749,10.692-2.127,27.803-1.584,40.195
			c10.747-11.374,31.928-35.37,47.111-50.998c2.748-15.663,5.027-29.214,5.879-35.612c2.755-20.682-2.934-130.646-2.934-130.646
			s-30.915-19.814-43.688-9.599c-12.769,10.213-20.631,20.195-0.052,132.09C1285.618,1481.255,1281,1503.389,1279.323,1527.337z"/>
		<path style="fill:#2B478B;" d="M1299.858,1352.513c0,0-2.776,110.077-7.114,130.486c-4.337,20.409-26.979,113.838-26.979,113.838
			s-21.223,1.933-32.314-2.818c0,0,0.706-43.27,4.469-68.691c3.516-23.75,9.821-45.464,8.917-54.046
			c-11.921-113.144-3.314-122.492,10.204-131.695C1270.559,1330.382,1299.858,1352.513,1299.858,1352.513z"/>
		<path style="fill:#FFB27D;" d="M1257.903,1362.149c0,0,7.354,14.756-6.782,26.032c0,0-6.129,4.192-7.068-1.256
			c-0.939-5.447,0.144-3.55-1.335-11.189s0.413-15.54,4.808-18.979L1257.903,1362.149z"/>
		<path style="fill:#FFB27D;" d="M1319.889,1182.112c0,0-8.488,12.901-6.795,24.94l-12.56,30.261l-22.66-34.642
			c0,0,11.97-13.029,16.438-30.792L1319.889,1182.112z"/>
		<path style="fill:#FFB27D;" d="M1323.611,1193.12c0,0-30.908,1.338-31.47-17.217c-0.562-18.555-8.915-30.897,14.203-32.528
			c19.01-1.341,25.33,6.587,27.024,12.734S1335.066,1192.125,1323.611,1193.12z"/>
		<path style="fill:#F99746;" d="M1247.945,1357.816c6.64,0.618,15.782,1.384,26.875,2.081c2.216,0.139,4.507,0.277,6.874,0.408
			c33.491,1.875,46.804-3.548,46.804-3.548s0.888-0.718,0.606-4.65c-1.455-20.254-5.756-26.236-5.237-30.086
			c1.166-8.65,22.153-79.243,22.153-79.243s0.404-22.3-24.396-32.766c-2.558-1.083-5.376-2.034-8.492-2.823
			c-1.086,2.887-4.063,7.707-11.679,6.819c-11.259-1.313-19.275-7.949-22.712-11.354c-0.623,0-0.868,0.02-0.868,0.02
			c-0.841,2.371-1.495,4.845-2.078,7.358c-2.034,8.765-3.223,17.986-8.603,24.88c-5.309,6.808-9.852,13.52-13.729,20.084
			c-3.227,5.463-5.994,10.827-8.36,16.052C1223.147,1319.572,1240.131,1357.083,1247.945,1357.816z"/>
		<path style="fill:#ED7D2B;" d="M1247.945,1357.816c6.64,0.618,15.782,1.384,26.875,2.081
			c3.235-54.514-18.978-106.872-18.978-106.872c-0.836,0.587-1.629,1.245-2.379,1.971c-3.869,3.758-6.564,9.336-8.36,16.052
			C1238.486,1295.766,1244.024,1335.925,1247.945,1357.816z"/>
		<path style="fill:#2B478B;" d="M1333.574,1175.423c0,0,6.017,23.87-4.194,27.232c-10.211,3.361-37.318,0.668-37.307-28.598
			c0,0,14.225,8.484,21.021,8.27s11.181-4.136,17.461-1.072C1330.555,1181.255,1332.852,1181.102,1333.574,1175.423z"/>
		<path style="fill:#F99746;" d="M1277.874,1202.672c0,0-21.604,0.485-33.02,15.338c-8.746,11.381-17.993,72.447-17.993,81.642
			s9.847,59.938,15.361,65.452c0,0,3.568,0.92,8.33,0c5.055-0.977,8.031-3.899,8.031-3.899s-2.743-56.495-2.743-61.795
			c0-7.672,23.986-54.634,23.986-54.634S1292.267,1222.425,1277.874,1202.672z"/>
		<path style="fill:#2B478B;" d="M1293.595,1149.146c0.52-1.895,2.853-2.89,2.853-2.89c17.408-7.581,30.125,0.715,30.125,0.715
			c-10.669-14.322-36.419-11.315-41.843,1.603c-8.856,21.092,7.343,25.484,7.343,25.484s16.175-6.797,6.809-15.318
			c-3.104-2.823-4.604-5.333-5.102-7.518l0,0l0,0C1293.614,1150.493,1293.559,1149.801,1293.595,1149.146z"/>
	</g>
	<g>
		<polygon style="fill:#FFB27D;" points="614.479,1555.155 610.705,1571.034 605.695,1592.094 590.042,1592.094 589.111,1571.92 
			588.39,1556.36 		"/>
		<path style="fill:#ED7D2B;" d="M664.081,1209.516c0,0,12.384-13.253,20.437-2.861c8.053,10.392,16.978,17.407,29.335,25.398
			c12.357,7.992-10.92,70.639-26.399,69.351S608.815,1250.727,664.081,1209.516z"/>
		<path style="fill:#A53232;" d="M602.41,1203.214c3.091-2.312,31.557-12.084,59.31-2.473c27.753,9.611-21.497,36.386-21.497,36.386
			l-15.961,0.687L602.41,1203.214z"/>
		<path style="fill:#FFB27D;" d="M620.529,1185.113c0,0-0.552,17.063-2.736,24.708l-17.286,37.261l65.07-15.465l-15.518-21.441
			c0,0-4.685-22.879-2.228-31.342C650.288,1170.37,620.529,1185.113,620.529,1185.113z"/>
		<path style="fill:#ED985F;" d="M620.435,1187.47c0-0.005,5.145,12.387,14.837,12.113c9.692-0.272,11.898-11.232,11.898-11.232
			L620.435,1187.47z"/>
		<path style="fill:#2C3A64;" d="M614.649,1177.44c0,0-3.13-15.625-5.314-20.357c-2.184-4.732-4.004-25.846,20.204-26.938
			c0,0,9.283,1.092,14.379-2.002c0,0,0,3.094-1.274,4.186c0,0,8.372-2.002,14.925,5.278c6.552,7.281-4.367,32.763-3.822,38.77
			L614.649,1177.44z"/>
		<path style="fill:#FFB27D;" d="M634.161,1194.797c-7.023-0.124-19.949-9.475-19.949-21.056v-18.07
			c0-4.229,2.949-7.688,6.552-7.688h26.793c3.604,0,6.553,3.46,6.553,7.688v17.048
			C654.11,1184.861,642.215,1194.938,634.161,1194.797z"/>
		<path style="fill:#2C3A64;" d="M614.212,1165.319c0,0,0.037-10.857,8.637-12.527c8.6-1.67,27.848,5.292,30.578-2.625
			c2.73-7.918-37.205-7.781-39.215-2.73C612.202,1152.487,614.212,1165.319,614.212,1165.319z"/>
		<path style="fill:#2B478B;" d="M683.614,1349.699l-38.092,2.38c-0.218-0.357-0.465-0.356-0.737,0.046l-11.207,0.7l-47.763-2.982
			c0,0-12.012,54.833-7.293,127.901c1.505,23.311,3.895,54.432,4.384,76.727h35.43c4.243-27.608,10.152-56.136,12.792-67.966
			c1.199-5.372,2.312-10.701,3.349-15.967c0.947,6.002,1.554,10.872,1.541,13.907c-0.021,4.855,1.396,12.584,3.357,21.898
			c2.755,13.119,6.591,29.38,9.006,45.172h35.944c0.412-21.755,4.948-51.433,5.339-73.773
			C690.704,1418.158,683.614,1349.699,683.614,1349.699z"/>
		<path style="fill:#233862;" d="M581.012,1377.945c0,0,13.645,16.533,50.716,14.147c37.072-2.387,54.759-8.839,54.759-8.839
			L581.012,1377.945z"/>
		<path style="fill:#BC3F3F;" d="M686.487,1383.254c-12.11,1.648-94.493,5.927-105.475-5.309
			c-10.983-11.239,17.928-164.532,17.928-164.532s3.275-0.947,8.799-1.987c2.816-0.531,6.215-1.082,10.061-1.545
			c0.046,1.194,0.999,19.268,16.003,26.732c0,0,18.021-7.219,16.255-26.439c-0.021-0.227-0.046-0.442-0.077-0.658
			c2.405,0.257,4.84,0.592,7.286,1.014c4.943,0.85,9.948,2.05,14.911,3.691C672.178,1214.221,698.597,1381.612,686.487,1383.254z"/>
		<path style="fill:#BC3F3F;" d="M581.706,1304.112c-0.487,0.638,2.797,5.354,7.431,11.421
			c9.532,12.458,24.779,30.591,24.779,30.591c-0.204,6.146-1.062,10.111-1.062,10.111c-20.945-9.897-35.106-19.153-44.494-26.588
			c-13.198-10.456-16.982-17.315-16.982-17.315c21.162-89.519,48.313-98.841,48.313-98.841l8.859,53.944
			C608.549,1267.436,583.19,1302.172,581.706,1304.112z"/>
		<path style="fill:#EE9849;" d="M657.267,1210.529l-5.458,16.601l-7.275,10.684l-10.442,5.664l-9.829-5.664l-16.523-26.388
			c2.816-0.531,6.215-1.082,10.061-1.545c0.046,1.194,0.999,19.268,16.003,26.732c0,0,18.021-7.219,16.255-26.439
			c-0.021-0.227-0.046-0.442-0.077-0.658C652.386,1209.772,654.821,1210.107,657.267,1210.529z"/>
		<path style="fill:#FFB27D;" d="M613.918,1346.126c-0.005,0.175-0.01,0.345-0.021,0.515c-0.046,1.133-0.113,2.193-0.196,3.156
			c-0.525,0.726-1.107,1.411-1.74,2.049c-0.963,0.974-2.003,1.792-3.063,2.482c-0.53-0.253-1.06-0.515-1.581-0.772
			c-17.939-8.882-30.42-17.146-38.957-23.906c5.417-1.668,13.006-5.479,20.776-14.118
			C598.667,1327.991,613.918,1346.126,613.918,1346.126z"/>
		<path style="fill:#BC3F3F;" d="M717.935,1309.041c0,0-3.652,6.931-16.647,17.638c-9.244,7.612-23.226,17.138-43.977,27.434
			c0,0-0.935-3.948-1.256-10.089c0,0,14.897-18.421,24.19-31.06c4.517-6.154,7.71-10.933,7.21-11.561
			c-1.18-1.484-17.077-22.393-24.17-31.718c-2.057-2.71-3.37-4.439-3.37-4.439l8.979-53.035
			C668.893,1212.211,695.063,1219.943,717.935,1309.041z"/>
		<path style="fill:#FFB27D;" d="M701.285,1326.679c-8.434,6.94-20.812,15.478-38.673,24.745c-0.443,0.227-0.891,0.458-1.344,0.69
			c-2.281-2.755-3.667-6.035-4.511-8.96c0.299-0.37,0.685-0.859,1.158-1.441c4.279-5.339,15.03-18.829,22.326-28.751
			C688.17,1321.452,695.837,1325.113,701.285,1326.679z"/>
		<path style="fill:#FFB27D;" d="M649.981,1209.516c-12.018-1.288-23.294-0.701-32.181,0.365c-0.005-0.041-0.005-0.063-0.005-0.063
			S647.581,1191.396,649.981,1209.516z"/>
		<g>
			<g>
				<polygon style="fill:#BBD4FF;" points="620.107,1261.616 619.496,1261.616 619.046,1232.905 620.59,1232.905 				"/>
			</g>
			<path style="fill:#EE9849;" d="M619.435,1260.87c-0.557,0.84-1.808,3.616-0.978,3.909c0.831,0.293,2.289,0.311,2.68-0.08
				C621.527,1264.309,620.486,1259.285,619.435,1260.87z"/>
		</g>
		<g>
			<g>
				<polygon style="fill:#BBD4FF;" points="648.304,1261.616 647.693,1261.616 647.242,1232.905 648.787,1232.905 				"/>
			</g>
			<path style="fill:#EE9849;" d="M647.631,1260.87c-0.557,0.84-1.808,3.616-0.978,3.909c0.831,0.293,2.289,0.311,2.68-0.08
				C649.724,1264.309,648.682,1259.285,647.631,1260.87z"/>
		</g>
		<path style="fill:#A53232;" d="M624.262,1237.813l-25.321-24.401c0,0-5.701-4.046,3.309-10.096
			C611.261,1197.266,624.262,1237.813,624.262,1237.813z"/>
		<path style="fill:#A53232;" d="M644.532,1237.813l25.321-24.401c0,0,5.701-4.046-3.309-10.096
			C657.533,1197.266,644.532,1237.813,644.532,1237.813z"/>
		<g>
			<path style="fill:#A53232;" d="M676.313,1354.45c-4.933,0.417-9.047-0.819-12.224-3.656c-0.535-0.479-1.024-0.988-1.478-1.523
				c-2.502-2.925-3.908-6.606-4.696-9.711c-0.906-3.548-1.004-6.339-1.004-6.396l-0.021-0.715h-40.897l0.025,0.762
				c0.16,4.397-0.551,8.171-2.121,11.276c-0.777,1.555-1.771,2.939-2.976,4.155c-1.112,1.122-2.343,2.028-3.604,2.76
				c-5.474,3.171-11.565,3.048-11.642,3.048l-0.756-0.026v17.28h82.192v-17.321L676.313,1354.45z"/>
		</g>
		<path style="fill:#A53232;" d="M687.454,1301.403c0,0-22.798-29.914-4.752-38.624c7.164-3.458,17.249,37.594,11.843,41.455
			c-5.407,3.861-14.304,8.728-14.304,8.728L687.454,1301.403z"/>
		<path style="fill:#A53232;" d="M584.33,1294.317c0,0,7.921-37.56,0.971-33.691c-6.951,3.868-17.249,37.593-11.843,41.454
			c5.406,3.862,14.304,8.729,14.304,8.729L584.33,1294.317z"/>
		<g>
			<path style="fill:#ED7D2B;" d="M684.257,1301.316c-10.411-12.924-14.3-33.91-13.768-55.566
				c0.398-16.261,2.628-30.936,2.774-31.45l8.539,6.651c-0.034,0.122-4.901,9.02-5.278,24.843
				c-0.344,14.471-1.03,25.487,7.15,50.678L684.257,1301.316z"/>
		</g>
		<path style="fill:#233862;" d="M605.211,1562.461l-18.343-0.01c-1.624,0.183-4.165-2.194-4.165-5.593c0,0-0.039-8.147-0.577-9.597
			c-2.36-6.35,1.15-6.693,4.548-6.693h33.468c3.398,0-1.807,10.504-1.807,13.902l1.205,4.455
			C619.541,1562.323,608.609,1562.461,605.211,1562.461z"/>
		<path style="fill:#233862;" d="M605.695,1592.094L605.695,1592.094l5.01-21.059c-11.41,3.928-19.262,1.74-21.594,0.885
			l0.932,20.174h-0.001c0,0-4.004,10.374-5.096,12.923c-1.092,2.548-1.092,10.211-1.092,10.211h24.936c0,0,0.182-7.481,0-10.575
			C608.607,1601.559,605.696,1592.097,605.695,1592.094z"/>
		<polygon style="fill:#FFB27D;" points="652.643,1555.155 656.417,1571.035 661.427,1592.094 677.08,1592.094 678.012,1571.921 
			678.732,1556.36 		"/>
		<path style="fill:#233862;" d="M661.911,1562.461l18.343-0.01c1.623,0.183,4.164-2.194,4.164-5.593c0,0,0.038-8.147,0.577-9.597
			c2.36-6.35-1.15-6.693-4.548-6.693h-33.468c-3.398,0,1.807,10.504,1.807,13.902l-1.205,4.455
			C647.581,1562.323,658.513,1562.461,661.911,1562.461z"/>
		<path style="fill:#233862;" d="M682.147,1605.017c-1.092-2.548-5.094-12.918-5.096-12.923h0.029l0.932-20.174
			c-2.332,0.855-10.185,3.043-21.594-0.885l5.01,21.059h-0.03c0,0-2.912,9.465-3.094,12.559c-0.182,3.094,0,10.575,0,10.575h24.936
			C683.239,1615.228,683.239,1607.564,682.147,1605.017z"/>
	</g>
	<g>
		<g>
			<polygon style="fill:#E58638;" points="356.002,1615.266 332.967,1615.266 342.085,1095.803 343.454,1017.891 354.359,1017.891 
				354.556,1087.98 			"/>
			<path style="fill:#CC6E2E;" d="M354.556,1087.98c-3.652,1.813-7.989,4.355-12.471,7.822l1.369-77.912h10.905L354.556,1087.98z"/>
		</g>
		<g>
			<path style="fill:#F99746;" d="M405.721,1029.968H283.249c-3.849,0-6.998-3.149-6.998-6.998V850.342
				c0-3.849,3.149-6.998,6.998-6.998h122.472c3.849,0,6.998,3.149,6.998,6.998v172.627
				C412.719,1026.818,409.57,1029.968,405.721,1029.968z"/>
			<path style="fill:#EDF4FF;" d="M398.503,1021.245H290.467c-3.449,0-6.271-2.821-6.271-6.271V857.941
				c0-3.449,2.822-6.271,6.271-6.271h108.036c3.449,0,6.271,2.822,6.271,6.271v157.034
				C404.773,1018.424,401.952,1021.245,398.503,1021.245z"/>
			<g>
				<path style="fill:#ED7D2B;" d="M315.508,909.851c-5.89-0.966-10.91,4.054-9.944,9.944c0.585,3.566,3.462,6.443,7.028,7.028
					c5.89,0.966,10.91-4.054,9.944-9.944C321.951,913.313,319.075,910.436,315.508,909.851z M314.05,922.167
					c-2.116,0-3.831-1.715-3.831-3.831c0-2.115,1.715-3.83,3.831-3.83c2.115,0,3.83,1.715,3.83,3.83
					C317.88,920.453,316.165,922.167,314.05,922.167z"/>
				<path style="fill:#ED7D2B;" d="M373.274,909.854c-5.895-0.977-10.926,4.044-9.958,9.942c0.586,3.567,3.463,6.444,7.031,7.027
					c5.887,0.962,10.898-4.045,9.942-9.932C379.71,913.325,376.838,910.445,373.274,909.854z M372.413,922.121
					c-2.593,0.402-4.801-1.809-4.394-4.403c0.253-1.612,1.577-2.926,3.19-3.167c2.586-0.387,4.773,1.811,4.377,4.393
					C375.339,920.554,374.023,921.871,372.413,922.121z"/>
				<path style="fill:#ED7D2B;" d="M383.682,880.572H309.12c-1.818,0-3.515,0.91-4.52,2.425l-8.006,12.069
					c-0.711,1.073-1.091,2.332-1.091,3.619v15.181c0,2.469,2.002,4.471,4.472,4.471l0,0c1.685,0,3.109-1.167,3.54-2.795
					c1.234-4.664,5.484-8.102,10.535-8.102c4.932,0,9.097,3.274,10.441,7.768c0.558,1.866,2.294,3.129,4.242,3.129h28.991
					c1.687,0,3.111-1.168,3.543-2.798c1.235-4.663,5.484-8.099,10.534-8.099c4.972,0,9.164,3.327,10.473,7.877
					c0.52,1.807,2.217,3.021,4.098,3.021h3.205c2.148,0,3.889-1.741,3.889-3.889v-16.706c0-0.789-0.14-1.571-0.414-2.31
					l-4.159-11.232C388.086,882.019,386.006,880.572,383.682,880.572z M316.325,894.132c0,1.276-1.035,2.311-2.311,2.311h-9.706
					c-1.503,0-2.447-1.624-1.702-2.929l4.352-7.632c0.868-1.52,2.482-2.46,4.231-2.46h2.821c1.278,0,2.314,1.036,2.314,2.314
					V894.132z M338.378,894.132c0,1.276-1.035,2.311-2.311,2.311h-13.344c-1.276,0-2.311-1.035-2.311-2.311v-8.398
					c0-1.276,1.035-2.312,2.311-2.312h13.344c1.276,0,2.311,1.035,2.311,2.312V894.132z M360.469,894.132
					c0,1.276-1.035,2.311-2.311,2.311H344.81c-1.276,0-2.311-1.035-2.311-2.311v-8.398c0-1.276,1.035-2.312,2.311-2.312h13.347
					c1.276,0,2.311,1.035,2.311,2.312V894.132z M382.698,894.132c0,1.276-1.035,2.311-2.311,2.311h-13.343
					c-1.277,0-2.311-1.035-2.311-2.311v-8.398c0-1.276,1.035-2.312,2.311-2.312h13.343c1.276,0,2.311,1.035,2.311,2.312V894.132z"/>
			</g>
			<g>
				<path style="fill:#ED7D2B;" d="M318.507,947.325h8.632c2.125,0,3.799,0.584,4.861,1.646c0.85,0.85,1.275,1.886,1.275,3.214
					c0,2.099-1.116,3.267-2.444,4.011c2.152,0.823,3.48,2.072,3.48,4.622c0,3.4-2.762,5.1-6.96,5.1h-8.845V947.325z
					 M326.264,954.842c1.806,0,2.948-0.585,2.948-2.019c0-1.222-0.956-1.913-2.683-1.913h-4.038v3.932H326.264z M327.353,962.332
					c1.806,0,2.895-0.638,2.895-2.072c0-1.249-0.93-2.019-3.027-2.019h-4.728v4.09H327.353z"/>
				<path style="fill:#ED7D2B;" d="M337.392,957.949v-10.625h4.091v10.518c0,3.028,1.514,4.596,4.011,4.596
					c2.497,0,4.01-1.514,4.01-4.462v-10.651h4.091v10.492c0,5.631-3.161,8.394-8.154,8.394
					C340.447,966.21,337.392,963.421,337.392,957.949z"/>
				<path style="fill:#ED7D2B;" d="M356.49,963.208l2.417-2.895c1.673,1.381,3.426,2.258,5.551,2.258
					c1.673,0,2.683-0.665,2.683-1.807c0-1.036-0.637-1.567-3.745-2.364c-3.746-0.957-6.163-1.992-6.163-5.737
					c0-3.374,2.71-5.604,6.508-5.604c2.71,0,5.021,0.85,6.906,2.364l-2.125,3.081c-1.647-1.143-3.267-1.833-4.834-1.833
					c-1.567,0-2.391,0.717-2.391,1.673c0,1.222,0.797,1.62,4.011,2.444c3.772,0.983,5.897,2.337,5.897,5.631
					c0,3.692-2.816,5.764-6.826,5.764C361.564,966.184,358.722,965.201,356.49,963.208z"/>
				<path style="fill:#ED7D2B;" d="M308.692,995.083l2.418-2.896c1.673,1.381,3.427,2.258,5.551,2.258
					c1.674,0,2.683-0.664,2.683-1.807c0-1.035-0.638-1.566-3.745-2.364c-3.746-0.956-6.163-1.992-6.163-5.738
					c0-3.373,2.709-5.604,6.508-5.604c2.709,0,5.02,0.85,6.906,2.363l-2.125,3.082c-1.647-1.142-3.267-1.833-4.834-1.833
					c-1.567,0-2.391,0.718-2.391,1.673c0,1.222,0.797,1.62,4.011,2.444c3.772,0.982,5.897,2.337,5.897,5.63
					c0,3.693-2.816,5.764-6.827,5.764C313.766,998.058,310.924,997.075,308.692,995.083z"/>
				<path style="fill:#ED7D2B;" d="M330.899,982.971h-5.658v-3.773h15.406v3.773h-5.658v14.822h-4.09V982.971z"/>
				<path style="fill:#ED7D2B;" d="M342.161,988.496c0-5.286,4.171-9.616,9.908-9.616s9.854,4.276,9.854,9.616
					c0,5.286-4.171,9.616-9.908,9.616C346.278,998.111,342.161,993.834,342.161,988.496z M357.646,988.496
					c0-3.188-2.338-5.844-5.631-5.844c-3.293,0-5.578,2.603-5.578,5.844c0,3.188,2.337,5.843,5.631,5.843
					C355.362,994.339,357.646,991.736,357.646,988.496z"/>
				<path style="fill:#ED7D2B;" d="M365.561,979.198h7.597c4.436,0,7.119,2.63,7.119,6.482c0,4.304-3.347,6.534-7.517,6.534h-3.108
					v5.579h-4.09V979.198z M372.893,988.575c2.045,0,3.241-1.222,3.241-2.87c0-1.833-1.275-2.815-3.32-2.815h-3.161v5.685H372.893z"
					/>
			</g>
		</g>
		<g>
			<path style="fill:#E58638;" d="M367.151,1613.966h-45.332l3.244-62.793c0.181-3.503,3.074-6.251,6.582-6.251h25.275
				c3.735,0,6.816,2.927,7.009,6.657L367.151,1613.966z"/>
			<path style="fill:#CC6E2E;" d="M342.727,1613.966h-20.909l3.271-63.31c0.166-3.213,2.82-5.734,6.038-5.734h6.519
				c5.317,0,9.522,4.505,9.157,9.81L342.727,1613.966z"/>
		</g>
	</g>
	<g>
		<path style="fill:#E58638;" d="M533.125,963.583l-0.333,20.845l-9.935,626.817c-0.024,1.51-1.255,2.721-2.765,2.721h-0.739
			c-2.978,0-5.411-2.378-5.478-5.354l-13.765-605.049l-0.907-39.979H533.125z"/>
		<path style="fill:#CC621B;" d="M533.125,963.583l-0.333,20.845c-9.075,2.84-22.068,8.451-32.683,19.134l-0.907-39.979H533.125z"/>
	</g>
	<g>
		<path style="fill:#E58638;" d="M1466.206,963.583l-0.333,20.845l-9.935,626.817c-0.024,1.51-1.254,2.721-2.764,2.721h-0.74
			c-2.978,0-5.41-2.378-5.478-5.354l-13.765-605.049l-0.906-39.979H1466.206z"/>
		<path style="fill:#CC621B;" d="M1466.206,963.583l-0.333,20.845c-9.075,2.84-22.068,8.451-32.683,19.134l-0.906-39.979H1466.206z"
			/>
	</g>
	<g>
		<path style="fill:#ED7D2B;" d="M1511.204,885.244v73.85c0,1.402-0.389,2.729-1.073,3.875c-1.489,2.497-4.365,4.2-7.658,4.2
			H469.236c-4.8,0-8.721-3.635-8.721-8.074v-73.85c0-4.44,3.921-8.075,8.721-8.075h1033.237
			C1507.282,877.169,1511.204,880.804,1511.204,885.244z"/>
		<path style="fill:#F99746;" d="M1511.204,885.244v73.85c0,1.402-0.389,2.729-1.073,3.875c-3.107,1.428-6.271,2.831-9.489,4.2
			h-436.285c-106.935-26.045-213.426-61.328-291.591-89.999h729.707C1507.282,877.169,1511.204,880.804,1511.204,885.244z"/>
	</g>
	<path style="fill:#B8E0AF;" d="M493.497,1571.034c0,0-29.082-44.418-47.044-35.906
		C428.492,1543.64,493.497,1571.034,493.497,1571.034z"/>
	<path style="fill:#B8E0AF;" d="M501.623,1562.461c0,0-1.711-32.079-11.12-30.796
		C481.095,1532.947,501.623,1562.461,501.623,1562.461z"/>
	<path style="fill:#2E3552;" d="M3101.611,1619.156H116.97c-1.864,0-3.389-1.525-3.389-3.389v-1.156c0-1.865,1.525-3.39,3.389-3.39
		h2984.642c1.863,0,3.389,1.524,3.389,3.39v1.156C3105,1617.631,3103.475,1619.156,3101.611,1619.156z"/>
</g>
</svg>
